G04 #@! TF.GenerationSoftware,KiCad,Pcbnew,5.1.5-1.fc31*
G04 #@! TF.CreationDate,2020-03-29T10:54:51-05:00*
G04 #@! TF.ProjectId,TK-X90-Programming,544b2d58-3930-42d5-9072-6f6772616d6d,A*
G04 #@! TF.SameCoordinates,Original*
G04 #@! TF.FileFunction,Legend,Bot*
G04 #@! TF.FilePolarity,Positive*
%FSLAX46Y46*%
G04 Gerber Fmt 4.6, Leading zero omitted, Abs format (unit mm)*
G04 Created by KiCad (PCBNEW 5.1.5-1.fc31) date 2020-03-29 10:54:51*
%MOMM*%
%LPD*%
G04 APERTURE LIST*
%ADD10C,0.010000*%
%ADD11C,0.120000*%
%ADD12C,0.150000*%
G04 APERTURE END LIST*
D10*
G36*
X152396090Y-96992348D02*
G01*
X152317546Y-96992778D01*
X152260702Y-96993942D01*
X152221895Y-96996207D01*
X152197462Y-96999940D01*
X152183738Y-97005506D01*
X152177060Y-97013273D01*
X152173764Y-97023605D01*
X152173444Y-97024943D01*
X152168438Y-97049079D01*
X152159171Y-97096701D01*
X152146608Y-97162741D01*
X152131713Y-97242128D01*
X152115449Y-97329796D01*
X152114881Y-97332875D01*
X152098590Y-97418789D01*
X152083348Y-97494696D01*
X152070139Y-97556045D01*
X152059946Y-97598282D01*
X152053752Y-97616855D01*
X152053457Y-97617184D01*
X152035212Y-97626253D01*
X151997595Y-97641367D01*
X151948729Y-97659262D01*
X151948457Y-97659358D01*
X151886907Y-97682493D01*
X151814343Y-97711965D01*
X151745943Y-97741597D01*
X151742706Y-97743062D01*
X151631298Y-97793626D01*
X151384601Y-97625160D01*
X151308923Y-97573803D01*
X151240369Y-97527889D01*
X151182912Y-97490030D01*
X151140524Y-97462837D01*
X151117175Y-97448921D01*
X151114958Y-97447889D01*
X151097990Y-97452484D01*
X151066299Y-97474655D01*
X151018648Y-97515447D01*
X150953802Y-97575905D01*
X150887603Y-97640227D01*
X150823786Y-97703612D01*
X150766671Y-97761451D01*
X150719695Y-97810175D01*
X150686297Y-97846210D01*
X150669915Y-97865984D01*
X150669306Y-97867002D01*
X150667495Y-97880572D01*
X150674317Y-97902733D01*
X150691460Y-97936478D01*
X150720607Y-97984800D01*
X150763445Y-98050692D01*
X150820552Y-98135517D01*
X150871234Y-98210177D01*
X150916539Y-98277140D01*
X150953850Y-98332516D01*
X150980548Y-98372420D01*
X150994015Y-98392962D01*
X150994863Y-98394356D01*
X150993219Y-98414038D01*
X150980755Y-98452293D01*
X150959952Y-98501889D01*
X150952538Y-98517728D01*
X150920186Y-98588290D01*
X150885672Y-98668353D01*
X150857635Y-98737629D01*
X150837432Y-98789045D01*
X150821385Y-98828119D01*
X150812112Y-98848541D01*
X150810959Y-98850114D01*
X150793904Y-98852721D01*
X150753702Y-98859863D01*
X150695698Y-98870523D01*
X150625237Y-98883685D01*
X150547665Y-98898333D01*
X150468328Y-98913449D01*
X150392569Y-98928018D01*
X150325736Y-98941022D01*
X150273172Y-98951445D01*
X150240224Y-98958270D01*
X150232143Y-98960199D01*
X150223795Y-98964962D01*
X150217494Y-98975718D01*
X150212955Y-98996098D01*
X150209896Y-99029734D01*
X150208033Y-99080255D01*
X150207082Y-99151292D01*
X150206760Y-99246476D01*
X150206743Y-99285492D01*
X150206743Y-99602799D01*
X150282943Y-99617839D01*
X150325337Y-99625995D01*
X150388600Y-99637899D01*
X150465038Y-99652116D01*
X150546957Y-99667210D01*
X150569600Y-99671355D01*
X150645194Y-99686053D01*
X150711047Y-99700505D01*
X150761634Y-99713375D01*
X150791426Y-99723322D01*
X150796388Y-99726287D01*
X150808574Y-99747283D01*
X150826047Y-99787967D01*
X150845423Y-99840322D01*
X150849266Y-99851600D01*
X150874661Y-99921523D01*
X150906183Y-100000418D01*
X150937031Y-100071266D01*
X150937183Y-100071595D01*
X150988553Y-100182733D01*
X150819601Y-100431253D01*
X150650648Y-100679772D01*
X150867571Y-100897058D01*
X150933181Y-100961726D01*
X150993021Y-101018733D01*
X151043733Y-101065033D01*
X151081954Y-101097584D01*
X151104325Y-101113343D01*
X151107534Y-101114343D01*
X151126374Y-101106469D01*
X151164820Y-101084578D01*
X151218670Y-101051267D01*
X151283724Y-101009131D01*
X151354060Y-100961943D01*
X151425445Y-100913810D01*
X151489092Y-100871928D01*
X151540959Y-100838871D01*
X151577005Y-100817218D01*
X151593133Y-100809543D01*
X151612811Y-100816037D01*
X151650125Y-100833150D01*
X151697379Y-100857326D01*
X151702388Y-100860013D01*
X151766023Y-100891927D01*
X151809659Y-100907579D01*
X151836798Y-100907745D01*
X151850943Y-100893204D01*
X151851025Y-100893000D01*
X151858095Y-100875779D01*
X151874958Y-100834899D01*
X151900305Y-100773525D01*
X151932829Y-100694819D01*
X151971222Y-100601947D01*
X152014178Y-100498072D01*
X152055778Y-100397502D01*
X152101496Y-100286516D01*
X152143474Y-100183703D01*
X152180452Y-100092215D01*
X152211173Y-100015201D01*
X152234378Y-99955815D01*
X152248810Y-99917209D01*
X152253257Y-99902800D01*
X152242104Y-99886272D01*
X152212931Y-99859930D01*
X152174029Y-99830887D01*
X152063243Y-99739039D01*
X151976649Y-99633759D01*
X151915284Y-99517266D01*
X151880185Y-99391776D01*
X151872392Y-99259507D01*
X151878057Y-99198457D01*
X151908922Y-99071795D01*
X151962080Y-98959941D01*
X152034233Y-98864001D01*
X152122083Y-98785076D01*
X152222335Y-98724270D01*
X152331690Y-98682687D01*
X152446853Y-98661428D01*
X152564525Y-98661599D01*
X152681410Y-98684301D01*
X152794211Y-98730638D01*
X152899631Y-98801713D01*
X152943632Y-98841911D01*
X153028021Y-98945129D01*
X153086778Y-99057925D01*
X153120296Y-99177010D01*
X153128965Y-99299095D01*
X153113177Y-99420893D01*
X153073322Y-99539116D01*
X153009793Y-99650475D01*
X152922979Y-99751684D01*
X152825971Y-99830887D01*
X152785563Y-99861162D01*
X152757018Y-99887219D01*
X152746743Y-99902825D01*
X152752123Y-99919843D01*
X152767425Y-99960500D01*
X152791388Y-100021642D01*
X152822756Y-100100119D01*
X152860268Y-100192780D01*
X152902667Y-100296472D01*
X152944337Y-100397526D01*
X152990310Y-100508607D01*
X153032893Y-100611541D01*
X153070779Y-100703165D01*
X153102660Y-100780316D01*
X153127229Y-100839831D01*
X153143180Y-100878544D01*
X153149090Y-100893000D01*
X153163052Y-100907685D01*
X153190060Y-100907642D01*
X153233587Y-100892099D01*
X153297110Y-100860284D01*
X153297612Y-100860013D01*
X153345440Y-100835323D01*
X153384103Y-100817338D01*
X153405905Y-100809614D01*
X153406867Y-100809543D01*
X153423279Y-100817378D01*
X153459513Y-100839165D01*
X153511526Y-100872328D01*
X153575275Y-100914291D01*
X153645940Y-100961943D01*
X153717884Y-101010191D01*
X153782726Y-101052151D01*
X153836265Y-101085227D01*
X153874303Y-101106821D01*
X153892467Y-101114343D01*
X153909192Y-101104457D01*
X153942820Y-101076826D01*
X153989990Y-101034495D01*
X154047342Y-100980505D01*
X154111516Y-100917899D01*
X154132503Y-100896983D01*
X154349501Y-100679623D01*
X154184332Y-100437220D01*
X154134136Y-100362781D01*
X154090081Y-100295972D01*
X154054638Y-100240665D01*
X154030281Y-100200729D01*
X154019478Y-100180036D01*
X154019162Y-100178563D01*
X154024857Y-100159058D01*
X154040174Y-100119822D01*
X154062463Y-100067430D01*
X154078107Y-100032355D01*
X154107359Y-99965201D01*
X154134906Y-99897358D01*
X154156263Y-99840034D01*
X154162065Y-99822572D01*
X154178548Y-99775938D01*
X154194660Y-99739905D01*
X154203510Y-99726287D01*
X154223040Y-99717952D01*
X154265666Y-99706137D01*
X154325855Y-99692181D01*
X154398078Y-99677422D01*
X154430400Y-99671355D01*
X154512478Y-99656273D01*
X154591205Y-99641669D01*
X154658891Y-99628980D01*
X154707840Y-99619642D01*
X154717057Y-99617839D01*
X154793257Y-99602799D01*
X154793257Y-99285492D01*
X154793086Y-99181154D01*
X154792384Y-99102213D01*
X154790866Y-99045038D01*
X154788251Y-99005999D01*
X154784254Y-98981465D01*
X154778591Y-98967805D01*
X154770980Y-98961389D01*
X154767857Y-98960199D01*
X154749022Y-98955980D01*
X154707412Y-98947562D01*
X154648370Y-98935961D01*
X154577243Y-98922195D01*
X154499375Y-98907280D01*
X154420113Y-98892232D01*
X154344802Y-98878069D01*
X154278787Y-98865806D01*
X154227413Y-98856461D01*
X154196025Y-98851050D01*
X154189041Y-98850114D01*
X154182715Y-98837596D01*
X154168710Y-98804246D01*
X154149645Y-98756377D01*
X154142366Y-98737629D01*
X154113004Y-98665195D01*
X154078429Y-98585170D01*
X154047463Y-98517728D01*
X154024677Y-98466159D01*
X154009518Y-98423785D01*
X154004458Y-98397834D01*
X154005264Y-98394356D01*
X154015959Y-98377936D01*
X154040380Y-98341417D01*
X154075905Y-98288687D01*
X154119913Y-98223635D01*
X154169783Y-98150151D01*
X154179644Y-98135645D01*
X154237508Y-98049704D01*
X154280044Y-97984261D01*
X154308946Y-97936304D01*
X154325910Y-97902820D01*
X154332633Y-97880795D01*
X154330810Y-97867217D01*
X154330764Y-97867131D01*
X154316414Y-97849297D01*
X154284677Y-97814817D01*
X154238990Y-97767268D01*
X154182796Y-97710222D01*
X154119532Y-97647255D01*
X154112398Y-97640227D01*
X154032670Y-97563020D01*
X153971143Y-97506330D01*
X153926579Y-97469110D01*
X153897743Y-97450315D01*
X153885042Y-97447889D01*
X153866506Y-97458471D01*
X153828039Y-97482916D01*
X153773614Y-97518612D01*
X153707202Y-97562947D01*
X153632775Y-97613311D01*
X153615399Y-97625160D01*
X153368703Y-97793626D01*
X153257294Y-97743062D01*
X153189543Y-97713595D01*
X153116817Y-97683959D01*
X153054297Y-97660330D01*
X153051543Y-97659358D01*
X153002640Y-97641457D01*
X152964943Y-97626320D01*
X152946575Y-97617210D01*
X152946544Y-97617184D01*
X152940715Y-97600717D01*
X152930808Y-97560219D01*
X152917805Y-97500242D01*
X152902691Y-97425340D01*
X152886448Y-97340064D01*
X152885119Y-97332875D01*
X152868825Y-97245014D01*
X152853867Y-97165260D01*
X152841209Y-97098681D01*
X152831814Y-97050347D01*
X152826646Y-97025325D01*
X152826556Y-97024943D01*
X152823411Y-97014299D01*
X152817296Y-97006262D01*
X152804547Y-97000467D01*
X152781500Y-96996547D01*
X152744491Y-96994135D01*
X152689856Y-96992865D01*
X152613933Y-96992371D01*
X152513056Y-96992286D01*
X152500000Y-96992286D01*
X152396090Y-96992348D01*
G37*
X152396090Y-96992348D02*
X152317546Y-96992778D01*
X152260702Y-96993942D01*
X152221895Y-96996207D01*
X152197462Y-96999940D01*
X152183738Y-97005506D01*
X152177060Y-97013273D01*
X152173764Y-97023605D01*
X152173444Y-97024943D01*
X152168438Y-97049079D01*
X152159171Y-97096701D01*
X152146608Y-97162741D01*
X152131713Y-97242128D01*
X152115449Y-97329796D01*
X152114881Y-97332875D01*
X152098590Y-97418789D01*
X152083348Y-97494696D01*
X152070139Y-97556045D01*
X152059946Y-97598282D01*
X152053752Y-97616855D01*
X152053457Y-97617184D01*
X152035212Y-97626253D01*
X151997595Y-97641367D01*
X151948729Y-97659262D01*
X151948457Y-97659358D01*
X151886907Y-97682493D01*
X151814343Y-97711965D01*
X151745943Y-97741597D01*
X151742706Y-97743062D01*
X151631298Y-97793626D01*
X151384601Y-97625160D01*
X151308923Y-97573803D01*
X151240369Y-97527889D01*
X151182912Y-97490030D01*
X151140524Y-97462837D01*
X151117175Y-97448921D01*
X151114958Y-97447889D01*
X151097990Y-97452484D01*
X151066299Y-97474655D01*
X151018648Y-97515447D01*
X150953802Y-97575905D01*
X150887603Y-97640227D01*
X150823786Y-97703612D01*
X150766671Y-97761451D01*
X150719695Y-97810175D01*
X150686297Y-97846210D01*
X150669915Y-97865984D01*
X150669306Y-97867002D01*
X150667495Y-97880572D01*
X150674317Y-97902733D01*
X150691460Y-97936478D01*
X150720607Y-97984800D01*
X150763445Y-98050692D01*
X150820552Y-98135517D01*
X150871234Y-98210177D01*
X150916539Y-98277140D01*
X150953850Y-98332516D01*
X150980548Y-98372420D01*
X150994015Y-98392962D01*
X150994863Y-98394356D01*
X150993219Y-98414038D01*
X150980755Y-98452293D01*
X150959952Y-98501889D01*
X150952538Y-98517728D01*
X150920186Y-98588290D01*
X150885672Y-98668353D01*
X150857635Y-98737629D01*
X150837432Y-98789045D01*
X150821385Y-98828119D01*
X150812112Y-98848541D01*
X150810959Y-98850114D01*
X150793904Y-98852721D01*
X150753702Y-98859863D01*
X150695698Y-98870523D01*
X150625237Y-98883685D01*
X150547665Y-98898333D01*
X150468328Y-98913449D01*
X150392569Y-98928018D01*
X150325736Y-98941022D01*
X150273172Y-98951445D01*
X150240224Y-98958270D01*
X150232143Y-98960199D01*
X150223795Y-98964962D01*
X150217494Y-98975718D01*
X150212955Y-98996098D01*
X150209896Y-99029734D01*
X150208033Y-99080255D01*
X150207082Y-99151292D01*
X150206760Y-99246476D01*
X150206743Y-99285492D01*
X150206743Y-99602799D01*
X150282943Y-99617839D01*
X150325337Y-99625995D01*
X150388600Y-99637899D01*
X150465038Y-99652116D01*
X150546957Y-99667210D01*
X150569600Y-99671355D01*
X150645194Y-99686053D01*
X150711047Y-99700505D01*
X150761634Y-99713375D01*
X150791426Y-99723322D01*
X150796388Y-99726287D01*
X150808574Y-99747283D01*
X150826047Y-99787967D01*
X150845423Y-99840322D01*
X150849266Y-99851600D01*
X150874661Y-99921523D01*
X150906183Y-100000418D01*
X150937031Y-100071266D01*
X150937183Y-100071595D01*
X150988553Y-100182733D01*
X150819601Y-100431253D01*
X150650648Y-100679772D01*
X150867571Y-100897058D01*
X150933181Y-100961726D01*
X150993021Y-101018733D01*
X151043733Y-101065033D01*
X151081954Y-101097584D01*
X151104325Y-101113343D01*
X151107534Y-101114343D01*
X151126374Y-101106469D01*
X151164820Y-101084578D01*
X151218670Y-101051267D01*
X151283724Y-101009131D01*
X151354060Y-100961943D01*
X151425445Y-100913810D01*
X151489092Y-100871928D01*
X151540959Y-100838871D01*
X151577005Y-100817218D01*
X151593133Y-100809543D01*
X151612811Y-100816037D01*
X151650125Y-100833150D01*
X151697379Y-100857326D01*
X151702388Y-100860013D01*
X151766023Y-100891927D01*
X151809659Y-100907579D01*
X151836798Y-100907745D01*
X151850943Y-100893204D01*
X151851025Y-100893000D01*
X151858095Y-100875779D01*
X151874958Y-100834899D01*
X151900305Y-100773525D01*
X151932829Y-100694819D01*
X151971222Y-100601947D01*
X152014178Y-100498072D01*
X152055778Y-100397502D01*
X152101496Y-100286516D01*
X152143474Y-100183703D01*
X152180452Y-100092215D01*
X152211173Y-100015201D01*
X152234378Y-99955815D01*
X152248810Y-99917209D01*
X152253257Y-99902800D01*
X152242104Y-99886272D01*
X152212931Y-99859930D01*
X152174029Y-99830887D01*
X152063243Y-99739039D01*
X151976649Y-99633759D01*
X151915284Y-99517266D01*
X151880185Y-99391776D01*
X151872392Y-99259507D01*
X151878057Y-99198457D01*
X151908922Y-99071795D01*
X151962080Y-98959941D01*
X152034233Y-98864001D01*
X152122083Y-98785076D01*
X152222335Y-98724270D01*
X152331690Y-98682687D01*
X152446853Y-98661428D01*
X152564525Y-98661599D01*
X152681410Y-98684301D01*
X152794211Y-98730638D01*
X152899631Y-98801713D01*
X152943632Y-98841911D01*
X153028021Y-98945129D01*
X153086778Y-99057925D01*
X153120296Y-99177010D01*
X153128965Y-99299095D01*
X153113177Y-99420893D01*
X153073322Y-99539116D01*
X153009793Y-99650475D01*
X152922979Y-99751684D01*
X152825971Y-99830887D01*
X152785563Y-99861162D01*
X152757018Y-99887219D01*
X152746743Y-99902825D01*
X152752123Y-99919843D01*
X152767425Y-99960500D01*
X152791388Y-100021642D01*
X152822756Y-100100119D01*
X152860268Y-100192780D01*
X152902667Y-100296472D01*
X152944337Y-100397526D01*
X152990310Y-100508607D01*
X153032893Y-100611541D01*
X153070779Y-100703165D01*
X153102660Y-100780316D01*
X153127229Y-100839831D01*
X153143180Y-100878544D01*
X153149090Y-100893000D01*
X153163052Y-100907685D01*
X153190060Y-100907642D01*
X153233587Y-100892099D01*
X153297110Y-100860284D01*
X153297612Y-100860013D01*
X153345440Y-100835323D01*
X153384103Y-100817338D01*
X153405905Y-100809614D01*
X153406867Y-100809543D01*
X153423279Y-100817378D01*
X153459513Y-100839165D01*
X153511526Y-100872328D01*
X153575275Y-100914291D01*
X153645940Y-100961943D01*
X153717884Y-101010191D01*
X153782726Y-101052151D01*
X153836265Y-101085227D01*
X153874303Y-101106821D01*
X153892467Y-101114343D01*
X153909192Y-101104457D01*
X153942820Y-101076826D01*
X153989990Y-101034495D01*
X154047342Y-100980505D01*
X154111516Y-100917899D01*
X154132503Y-100896983D01*
X154349501Y-100679623D01*
X154184332Y-100437220D01*
X154134136Y-100362781D01*
X154090081Y-100295972D01*
X154054638Y-100240665D01*
X154030281Y-100200729D01*
X154019478Y-100180036D01*
X154019162Y-100178563D01*
X154024857Y-100159058D01*
X154040174Y-100119822D01*
X154062463Y-100067430D01*
X154078107Y-100032355D01*
X154107359Y-99965201D01*
X154134906Y-99897358D01*
X154156263Y-99840034D01*
X154162065Y-99822572D01*
X154178548Y-99775938D01*
X154194660Y-99739905D01*
X154203510Y-99726287D01*
X154223040Y-99717952D01*
X154265666Y-99706137D01*
X154325855Y-99692181D01*
X154398078Y-99677422D01*
X154430400Y-99671355D01*
X154512478Y-99656273D01*
X154591205Y-99641669D01*
X154658891Y-99628980D01*
X154707840Y-99619642D01*
X154717057Y-99617839D01*
X154793257Y-99602799D01*
X154793257Y-99285492D01*
X154793086Y-99181154D01*
X154792384Y-99102213D01*
X154790866Y-99045038D01*
X154788251Y-99005999D01*
X154784254Y-98981465D01*
X154778591Y-98967805D01*
X154770980Y-98961389D01*
X154767857Y-98960199D01*
X154749022Y-98955980D01*
X154707412Y-98947562D01*
X154648370Y-98935961D01*
X154577243Y-98922195D01*
X154499375Y-98907280D01*
X154420113Y-98892232D01*
X154344802Y-98878069D01*
X154278787Y-98865806D01*
X154227413Y-98856461D01*
X154196025Y-98851050D01*
X154189041Y-98850114D01*
X154182715Y-98837596D01*
X154168710Y-98804246D01*
X154149645Y-98756377D01*
X154142366Y-98737629D01*
X154113004Y-98665195D01*
X154078429Y-98585170D01*
X154047463Y-98517728D01*
X154024677Y-98466159D01*
X154009518Y-98423785D01*
X154004458Y-98397834D01*
X154005264Y-98394356D01*
X154015959Y-98377936D01*
X154040380Y-98341417D01*
X154075905Y-98288687D01*
X154119913Y-98223635D01*
X154169783Y-98150151D01*
X154179644Y-98135645D01*
X154237508Y-98049704D01*
X154280044Y-97984261D01*
X154308946Y-97936304D01*
X154325910Y-97902820D01*
X154332633Y-97880795D01*
X154330810Y-97867217D01*
X154330764Y-97867131D01*
X154316414Y-97849297D01*
X154284677Y-97814817D01*
X154238990Y-97767268D01*
X154182796Y-97710222D01*
X154119532Y-97647255D01*
X154112398Y-97640227D01*
X154032670Y-97563020D01*
X153971143Y-97506330D01*
X153926579Y-97469110D01*
X153897743Y-97450315D01*
X153885042Y-97447889D01*
X153866506Y-97458471D01*
X153828039Y-97482916D01*
X153773614Y-97518612D01*
X153707202Y-97562947D01*
X153632775Y-97613311D01*
X153615399Y-97625160D01*
X153368703Y-97793626D01*
X153257294Y-97743062D01*
X153189543Y-97713595D01*
X153116817Y-97683959D01*
X153054297Y-97660330D01*
X153051543Y-97659358D01*
X153002640Y-97641457D01*
X152964943Y-97626320D01*
X152946575Y-97617210D01*
X152946544Y-97617184D01*
X152940715Y-97600717D01*
X152930808Y-97560219D01*
X152917805Y-97500242D01*
X152902691Y-97425340D01*
X152886448Y-97340064D01*
X152885119Y-97332875D01*
X152868825Y-97245014D01*
X152853867Y-97165260D01*
X152841209Y-97098681D01*
X152831814Y-97050347D01*
X152826646Y-97025325D01*
X152826556Y-97024943D01*
X152823411Y-97014299D01*
X152817296Y-97006262D01*
X152804547Y-97000467D01*
X152781500Y-96996547D01*
X152744491Y-96994135D01*
X152689856Y-96992865D01*
X152613933Y-96992371D01*
X152513056Y-96992286D01*
X152500000Y-96992286D01*
X152396090Y-96992348D01*
G36*
X149346405Y-101716966D02*
G01*
X149288979Y-101754497D01*
X149261281Y-101788096D01*
X149239338Y-101849064D01*
X149237595Y-101897308D01*
X149241543Y-101961816D01*
X149390314Y-102026934D01*
X149462651Y-102060202D01*
X149509916Y-102086964D01*
X149534493Y-102110144D01*
X149538763Y-102132667D01*
X149525111Y-102157455D01*
X149510057Y-102173886D01*
X149466254Y-102200235D01*
X149418611Y-102202081D01*
X149374855Y-102181546D01*
X149342711Y-102140752D01*
X149336962Y-102126347D01*
X149309424Y-102081356D01*
X149277742Y-102062182D01*
X149234286Y-102045779D01*
X149234286Y-102107966D01*
X149238128Y-102150283D01*
X149253177Y-102185969D01*
X149284720Y-102226943D01*
X149289408Y-102232267D01*
X149324494Y-102268720D01*
X149354653Y-102288283D01*
X149392385Y-102297283D01*
X149423665Y-102300230D01*
X149479615Y-102300965D01*
X149519445Y-102291660D01*
X149544292Y-102277846D01*
X149583344Y-102247467D01*
X149610375Y-102214613D01*
X149627483Y-102173294D01*
X149636762Y-102117521D01*
X149640307Y-102041305D01*
X149640590Y-102002622D01*
X149639628Y-101956247D01*
X149551993Y-101956247D01*
X149550977Y-101981126D01*
X149548444Y-101985200D01*
X149531726Y-101979665D01*
X149495751Y-101965017D01*
X149447669Y-101944190D01*
X149437614Y-101939714D01*
X149376848Y-101908814D01*
X149343368Y-101881657D01*
X149336010Y-101856220D01*
X149353609Y-101830481D01*
X149368144Y-101819109D01*
X149420590Y-101796364D01*
X149469678Y-101800122D01*
X149510773Y-101827884D01*
X149539242Y-101877152D01*
X149548369Y-101916257D01*
X149551993Y-101956247D01*
X149639628Y-101956247D01*
X149638715Y-101912249D01*
X149631804Y-101845384D01*
X149618116Y-101796695D01*
X149595904Y-101760849D01*
X149563426Y-101732513D01*
X149549267Y-101723355D01*
X149484947Y-101699507D01*
X149414527Y-101698006D01*
X149346405Y-101716966D01*
G37*
X149346405Y-101716966D02*
X149288979Y-101754497D01*
X149261281Y-101788096D01*
X149239338Y-101849064D01*
X149237595Y-101897308D01*
X149241543Y-101961816D01*
X149390314Y-102026934D01*
X149462651Y-102060202D01*
X149509916Y-102086964D01*
X149534493Y-102110144D01*
X149538763Y-102132667D01*
X149525111Y-102157455D01*
X149510057Y-102173886D01*
X149466254Y-102200235D01*
X149418611Y-102202081D01*
X149374855Y-102181546D01*
X149342711Y-102140752D01*
X149336962Y-102126347D01*
X149309424Y-102081356D01*
X149277742Y-102062182D01*
X149234286Y-102045779D01*
X149234286Y-102107966D01*
X149238128Y-102150283D01*
X149253177Y-102185969D01*
X149284720Y-102226943D01*
X149289408Y-102232267D01*
X149324494Y-102268720D01*
X149354653Y-102288283D01*
X149392385Y-102297283D01*
X149423665Y-102300230D01*
X149479615Y-102300965D01*
X149519445Y-102291660D01*
X149544292Y-102277846D01*
X149583344Y-102247467D01*
X149610375Y-102214613D01*
X149627483Y-102173294D01*
X149636762Y-102117521D01*
X149640307Y-102041305D01*
X149640590Y-102002622D01*
X149639628Y-101956247D01*
X149551993Y-101956247D01*
X149550977Y-101981126D01*
X149548444Y-101985200D01*
X149531726Y-101979665D01*
X149495751Y-101965017D01*
X149447669Y-101944190D01*
X149437614Y-101939714D01*
X149376848Y-101908814D01*
X149343368Y-101881657D01*
X149336010Y-101856220D01*
X149353609Y-101830481D01*
X149368144Y-101819109D01*
X149420590Y-101796364D01*
X149469678Y-101800122D01*
X149510773Y-101827884D01*
X149539242Y-101877152D01*
X149548369Y-101916257D01*
X149551993Y-101956247D01*
X149639628Y-101956247D01*
X149638715Y-101912249D01*
X149631804Y-101845384D01*
X149618116Y-101796695D01*
X149595904Y-101760849D01*
X149563426Y-101732513D01*
X149549267Y-101723355D01*
X149484947Y-101699507D01*
X149414527Y-101698006D01*
X149346405Y-101716966D01*
G36*
X149847400Y-101708752D02*
G01*
X149830052Y-101716334D01*
X149788644Y-101749128D01*
X149753235Y-101796547D01*
X149731336Y-101847151D01*
X149727771Y-101872098D01*
X149739721Y-101906927D01*
X149765933Y-101925357D01*
X149794036Y-101936516D01*
X149806905Y-101938572D01*
X149813171Y-101923649D01*
X149825544Y-101891175D01*
X149830972Y-101876502D01*
X149861410Y-101825744D01*
X149905480Y-101800427D01*
X149961990Y-101801206D01*
X149966175Y-101802203D01*
X149996345Y-101816507D01*
X150018524Y-101844393D01*
X150033673Y-101889287D01*
X150042750Y-101954615D01*
X150046714Y-102043804D01*
X150047086Y-102091261D01*
X150047270Y-102166071D01*
X150048478Y-102217069D01*
X150051691Y-102249471D01*
X150057891Y-102268495D01*
X150068060Y-102279356D01*
X150083181Y-102287272D01*
X150084054Y-102287670D01*
X150113172Y-102299981D01*
X150127597Y-102304514D01*
X150129814Y-102290809D01*
X150131711Y-102252925D01*
X150133153Y-102195715D01*
X150134002Y-102124027D01*
X150134171Y-102071565D01*
X150133308Y-101970047D01*
X150129930Y-101893032D01*
X150122858Y-101836023D01*
X150110912Y-101794526D01*
X150092910Y-101764043D01*
X150067673Y-101740080D01*
X150042753Y-101723355D01*
X149982829Y-101701097D01*
X149913089Y-101696076D01*
X149847400Y-101708752D01*
G37*
X149847400Y-101708752D02*
X149830052Y-101716334D01*
X149788644Y-101749128D01*
X149753235Y-101796547D01*
X149731336Y-101847151D01*
X149727771Y-101872098D01*
X149739721Y-101906927D01*
X149765933Y-101925357D01*
X149794036Y-101936516D01*
X149806905Y-101938572D01*
X149813171Y-101923649D01*
X149825544Y-101891175D01*
X149830972Y-101876502D01*
X149861410Y-101825744D01*
X149905480Y-101800427D01*
X149961990Y-101801206D01*
X149966175Y-101802203D01*
X149996345Y-101816507D01*
X150018524Y-101844393D01*
X150033673Y-101889287D01*
X150042750Y-101954615D01*
X150046714Y-102043804D01*
X150047086Y-102091261D01*
X150047270Y-102166071D01*
X150048478Y-102217069D01*
X150051691Y-102249471D01*
X150057891Y-102268495D01*
X150068060Y-102279356D01*
X150083181Y-102287272D01*
X150084054Y-102287670D01*
X150113172Y-102299981D01*
X150127597Y-102304514D01*
X150129814Y-102290809D01*
X150131711Y-102252925D01*
X150133153Y-102195715D01*
X150134002Y-102124027D01*
X150134171Y-102071565D01*
X150133308Y-101970047D01*
X150129930Y-101893032D01*
X150122858Y-101836023D01*
X150110912Y-101794526D01*
X150092910Y-101764043D01*
X150067673Y-101740080D01*
X150042753Y-101723355D01*
X149982829Y-101701097D01*
X149913089Y-101696076D01*
X149847400Y-101708752D01*
G36*
X150355124Y-101706335D02*
G01*
X150313333Y-101725344D01*
X150280531Y-101748378D01*
X150256497Y-101774133D01*
X150239903Y-101807358D01*
X150229423Y-101852800D01*
X150223729Y-101915207D01*
X150221493Y-101999327D01*
X150221257Y-102054721D01*
X150221257Y-102270826D01*
X150258226Y-102287670D01*
X150287344Y-102299981D01*
X150301769Y-102304514D01*
X150304528Y-102291025D01*
X150306718Y-102254653D01*
X150308058Y-102201542D01*
X150308343Y-102159372D01*
X150309566Y-102098447D01*
X150312864Y-102050115D01*
X150317679Y-102020518D01*
X150321504Y-102014229D01*
X150347217Y-102020652D01*
X150387582Y-102037125D01*
X150434321Y-102059458D01*
X150479155Y-102083457D01*
X150513807Y-102104930D01*
X150529998Y-102119685D01*
X150530062Y-102119845D01*
X150528670Y-102147152D01*
X150516182Y-102173219D01*
X150494257Y-102194392D01*
X150462257Y-102201474D01*
X150434908Y-102200649D01*
X150396174Y-102200042D01*
X150375842Y-102209116D01*
X150363631Y-102233092D01*
X150362091Y-102237613D01*
X150356797Y-102271806D01*
X150370953Y-102292568D01*
X150407852Y-102302462D01*
X150447711Y-102304292D01*
X150519438Y-102290727D01*
X150556568Y-102271355D01*
X150602424Y-102225845D01*
X150626744Y-102169983D01*
X150628927Y-102110957D01*
X150608371Y-102055953D01*
X150577451Y-102021486D01*
X150546580Y-102002189D01*
X150498058Y-101977759D01*
X150441515Y-101952985D01*
X150432090Y-101949199D01*
X150369981Y-101921791D01*
X150334178Y-101897634D01*
X150322663Y-101873619D01*
X150333420Y-101846635D01*
X150351886Y-101825543D01*
X150395531Y-101799572D01*
X150443554Y-101797624D01*
X150487594Y-101817637D01*
X150519291Y-101857551D01*
X150523451Y-101867848D01*
X150547673Y-101905724D01*
X150583035Y-101933842D01*
X150627657Y-101956917D01*
X150627657Y-101891485D01*
X150625031Y-101851506D01*
X150613770Y-101819997D01*
X150588801Y-101786378D01*
X150564831Y-101760484D01*
X150527559Y-101723817D01*
X150498599Y-101704121D01*
X150467495Y-101696220D01*
X150432287Y-101694914D01*
X150355124Y-101706335D01*
G37*
X150355124Y-101706335D02*
X150313333Y-101725344D01*
X150280531Y-101748378D01*
X150256497Y-101774133D01*
X150239903Y-101807358D01*
X150229423Y-101852800D01*
X150223729Y-101915207D01*
X150221493Y-101999327D01*
X150221257Y-102054721D01*
X150221257Y-102270826D01*
X150258226Y-102287670D01*
X150287344Y-102299981D01*
X150301769Y-102304514D01*
X150304528Y-102291025D01*
X150306718Y-102254653D01*
X150308058Y-102201542D01*
X150308343Y-102159372D01*
X150309566Y-102098447D01*
X150312864Y-102050115D01*
X150317679Y-102020518D01*
X150321504Y-102014229D01*
X150347217Y-102020652D01*
X150387582Y-102037125D01*
X150434321Y-102059458D01*
X150479155Y-102083457D01*
X150513807Y-102104930D01*
X150529998Y-102119685D01*
X150530062Y-102119845D01*
X150528670Y-102147152D01*
X150516182Y-102173219D01*
X150494257Y-102194392D01*
X150462257Y-102201474D01*
X150434908Y-102200649D01*
X150396174Y-102200042D01*
X150375842Y-102209116D01*
X150363631Y-102233092D01*
X150362091Y-102237613D01*
X150356797Y-102271806D01*
X150370953Y-102292568D01*
X150407852Y-102302462D01*
X150447711Y-102304292D01*
X150519438Y-102290727D01*
X150556568Y-102271355D01*
X150602424Y-102225845D01*
X150626744Y-102169983D01*
X150628927Y-102110957D01*
X150608371Y-102055953D01*
X150577451Y-102021486D01*
X150546580Y-102002189D01*
X150498058Y-101977759D01*
X150441515Y-101952985D01*
X150432090Y-101949199D01*
X150369981Y-101921791D01*
X150334178Y-101897634D01*
X150322663Y-101873619D01*
X150333420Y-101846635D01*
X150351886Y-101825543D01*
X150395531Y-101799572D01*
X150443554Y-101797624D01*
X150487594Y-101817637D01*
X150519291Y-101857551D01*
X150523451Y-101867848D01*
X150547673Y-101905724D01*
X150583035Y-101933842D01*
X150627657Y-101956917D01*
X150627657Y-101891485D01*
X150625031Y-101851506D01*
X150613770Y-101819997D01*
X150588801Y-101786378D01*
X150564831Y-101760484D01*
X150527559Y-101723817D01*
X150498599Y-101704121D01*
X150467495Y-101696220D01*
X150432287Y-101694914D01*
X150355124Y-101706335D01*
G36*
X150720167Y-101708663D02*
G01*
X150717952Y-101746850D01*
X150716216Y-101804886D01*
X150715101Y-101878180D01*
X150714743Y-101955055D01*
X150714743Y-102215196D01*
X150760674Y-102261127D01*
X150792325Y-102289429D01*
X150820110Y-102300893D01*
X150858085Y-102300168D01*
X150873160Y-102298321D01*
X150920274Y-102292948D01*
X150959244Y-102289869D01*
X150968743Y-102289585D01*
X151000767Y-102291445D01*
X151046568Y-102296114D01*
X151064326Y-102298321D01*
X151107943Y-102301735D01*
X151137255Y-102294320D01*
X151166320Y-102271427D01*
X151176812Y-102261127D01*
X151222743Y-102215196D01*
X151222743Y-101728602D01*
X151185774Y-101711758D01*
X151153941Y-101699282D01*
X151135317Y-101694914D01*
X151130542Y-101708718D01*
X151126079Y-101747286D01*
X151122225Y-101806356D01*
X151119278Y-101881663D01*
X151117857Y-101945286D01*
X151113886Y-102195657D01*
X151079241Y-102200556D01*
X151047732Y-102197131D01*
X151032292Y-102186041D01*
X151027977Y-102165308D01*
X151024292Y-102121145D01*
X151021531Y-102059146D01*
X151019988Y-101984909D01*
X151019765Y-101946706D01*
X151019543Y-101726783D01*
X150973834Y-101710849D01*
X150941482Y-101700015D01*
X150923885Y-101694962D01*
X150923377Y-101694914D01*
X150921612Y-101708648D01*
X150919671Y-101746730D01*
X150917718Y-101804482D01*
X150915916Y-101877227D01*
X150914657Y-101945286D01*
X150910686Y-102195657D01*
X150823600Y-102195657D01*
X150819604Y-101967240D01*
X150815608Y-101738822D01*
X150773153Y-101716868D01*
X150741808Y-101701793D01*
X150723256Y-101694951D01*
X150722721Y-101694914D01*
X150720167Y-101708663D01*
G37*
X150720167Y-101708663D02*
X150717952Y-101746850D01*
X150716216Y-101804886D01*
X150715101Y-101878180D01*
X150714743Y-101955055D01*
X150714743Y-102215196D01*
X150760674Y-102261127D01*
X150792325Y-102289429D01*
X150820110Y-102300893D01*
X150858085Y-102300168D01*
X150873160Y-102298321D01*
X150920274Y-102292948D01*
X150959244Y-102289869D01*
X150968743Y-102289585D01*
X151000767Y-102291445D01*
X151046568Y-102296114D01*
X151064326Y-102298321D01*
X151107943Y-102301735D01*
X151137255Y-102294320D01*
X151166320Y-102271427D01*
X151176812Y-102261127D01*
X151222743Y-102215196D01*
X151222743Y-101728602D01*
X151185774Y-101711758D01*
X151153941Y-101699282D01*
X151135317Y-101694914D01*
X151130542Y-101708718D01*
X151126079Y-101747286D01*
X151122225Y-101806356D01*
X151119278Y-101881663D01*
X151117857Y-101945286D01*
X151113886Y-102195657D01*
X151079241Y-102200556D01*
X151047732Y-102197131D01*
X151032292Y-102186041D01*
X151027977Y-102165308D01*
X151024292Y-102121145D01*
X151021531Y-102059146D01*
X151019988Y-101984909D01*
X151019765Y-101946706D01*
X151019543Y-101726783D01*
X150973834Y-101710849D01*
X150941482Y-101700015D01*
X150923885Y-101694962D01*
X150923377Y-101694914D01*
X150921612Y-101708648D01*
X150919671Y-101746730D01*
X150917718Y-101804482D01*
X150915916Y-101877227D01*
X150914657Y-101945286D01*
X150910686Y-102195657D01*
X150823600Y-102195657D01*
X150819604Y-101967240D01*
X150815608Y-101738822D01*
X150773153Y-101716868D01*
X150741808Y-101701793D01*
X150723256Y-101694951D01*
X150722721Y-101694914D01*
X150720167Y-101708663D01*
G36*
X151309883Y-101815358D02*
G01*
X151310067Y-101923837D01*
X151310781Y-102007287D01*
X151312325Y-102069704D01*
X151314999Y-102115085D01*
X151319106Y-102147429D01*
X151324945Y-102170733D01*
X151332818Y-102188995D01*
X151338779Y-102199418D01*
X151388145Y-102255945D01*
X151450736Y-102291377D01*
X151519987Y-102304090D01*
X151589332Y-102292463D01*
X151630625Y-102271568D01*
X151673975Y-102235422D01*
X151703519Y-102191276D01*
X151721345Y-102133462D01*
X151729537Y-102056313D01*
X151730698Y-101999714D01*
X151730542Y-101995647D01*
X151629143Y-101995647D01*
X151628524Y-102060550D01*
X151625686Y-102103514D01*
X151619160Y-102131622D01*
X151607477Y-102151953D01*
X151593517Y-102167288D01*
X151546635Y-102196890D01*
X151496299Y-102199419D01*
X151448724Y-102174705D01*
X151445021Y-102171356D01*
X151429217Y-102153935D01*
X151419307Y-102133209D01*
X151413942Y-102102362D01*
X151411772Y-102054577D01*
X151411429Y-102001748D01*
X151412173Y-101935381D01*
X151415252Y-101891106D01*
X151421939Y-101862009D01*
X151433504Y-101841173D01*
X151442987Y-101830107D01*
X151487040Y-101802198D01*
X151537776Y-101798843D01*
X151586204Y-101820159D01*
X151595550Y-101828073D01*
X151611460Y-101845647D01*
X151621390Y-101866587D01*
X151626722Y-101897782D01*
X151628837Y-101946122D01*
X151629143Y-101995647D01*
X151730542Y-101995647D01*
X151727190Y-101908568D01*
X151715274Y-101840086D01*
X151692865Y-101788600D01*
X151657876Y-101748443D01*
X151630625Y-101727861D01*
X151581093Y-101705625D01*
X151523684Y-101695304D01*
X151470318Y-101698067D01*
X151440457Y-101709212D01*
X151428739Y-101712383D01*
X151420963Y-101700557D01*
X151415535Y-101668866D01*
X151411429Y-101620593D01*
X151406933Y-101566829D01*
X151400687Y-101534482D01*
X151389324Y-101515985D01*
X151369472Y-101503770D01*
X151357000Y-101498362D01*
X151309829Y-101478601D01*
X151309883Y-101815358D01*
G37*
X151309883Y-101815358D02*
X151310067Y-101923837D01*
X151310781Y-102007287D01*
X151312325Y-102069704D01*
X151314999Y-102115085D01*
X151319106Y-102147429D01*
X151324945Y-102170733D01*
X151332818Y-102188995D01*
X151338779Y-102199418D01*
X151388145Y-102255945D01*
X151450736Y-102291377D01*
X151519987Y-102304090D01*
X151589332Y-102292463D01*
X151630625Y-102271568D01*
X151673975Y-102235422D01*
X151703519Y-102191276D01*
X151721345Y-102133462D01*
X151729537Y-102056313D01*
X151730698Y-101999714D01*
X151730542Y-101995647D01*
X151629143Y-101995647D01*
X151628524Y-102060550D01*
X151625686Y-102103514D01*
X151619160Y-102131622D01*
X151607477Y-102151953D01*
X151593517Y-102167288D01*
X151546635Y-102196890D01*
X151496299Y-102199419D01*
X151448724Y-102174705D01*
X151445021Y-102171356D01*
X151429217Y-102153935D01*
X151419307Y-102133209D01*
X151413942Y-102102362D01*
X151411772Y-102054577D01*
X151411429Y-102001748D01*
X151412173Y-101935381D01*
X151415252Y-101891106D01*
X151421939Y-101862009D01*
X151433504Y-101841173D01*
X151442987Y-101830107D01*
X151487040Y-101802198D01*
X151537776Y-101798843D01*
X151586204Y-101820159D01*
X151595550Y-101828073D01*
X151611460Y-101845647D01*
X151621390Y-101866587D01*
X151626722Y-101897782D01*
X151628837Y-101946122D01*
X151629143Y-101995647D01*
X151730542Y-101995647D01*
X151727190Y-101908568D01*
X151715274Y-101840086D01*
X151692865Y-101788600D01*
X151657876Y-101748443D01*
X151630625Y-101727861D01*
X151581093Y-101705625D01*
X151523684Y-101695304D01*
X151470318Y-101698067D01*
X151440457Y-101709212D01*
X151428739Y-101712383D01*
X151420963Y-101700557D01*
X151415535Y-101668866D01*
X151411429Y-101620593D01*
X151406933Y-101566829D01*
X151400687Y-101534482D01*
X151389324Y-101515985D01*
X151369472Y-101503770D01*
X151357000Y-101498362D01*
X151309829Y-101478601D01*
X151309883Y-101815358D01*
G36*
X151970074Y-101699755D02*
G01*
X151904142Y-101724084D01*
X151850727Y-101767117D01*
X151829836Y-101797409D01*
X151807061Y-101852994D01*
X151807534Y-101893186D01*
X151831438Y-101920217D01*
X151840283Y-101924813D01*
X151878470Y-101939144D01*
X151897972Y-101935472D01*
X151904578Y-101911407D01*
X151904914Y-101898114D01*
X151917008Y-101849210D01*
X151948529Y-101814999D01*
X151992341Y-101798476D01*
X152041305Y-101802634D01*
X152081106Y-101824227D01*
X152094550Y-101836544D01*
X152104079Y-101851487D01*
X152110515Y-101874075D01*
X152114683Y-101909328D01*
X152117403Y-101962266D01*
X152119498Y-102037907D01*
X152120040Y-102061857D01*
X152122019Y-102143790D01*
X152124269Y-102201455D01*
X152127643Y-102239608D01*
X152132994Y-102263004D01*
X152141176Y-102276398D01*
X152153041Y-102284545D01*
X152160638Y-102288144D01*
X152192898Y-102300452D01*
X152211889Y-102304514D01*
X152218164Y-102290948D01*
X152221994Y-102249934D01*
X152223400Y-102180999D01*
X152222402Y-102083669D01*
X152222092Y-102068657D01*
X152219899Y-101979859D01*
X152217307Y-101915019D01*
X152213618Y-101869067D01*
X152208136Y-101836935D01*
X152200165Y-101813553D01*
X152189007Y-101793852D01*
X152183170Y-101785410D01*
X152149704Y-101748057D01*
X152112273Y-101719003D01*
X152107691Y-101716467D01*
X152040574Y-101696443D01*
X151970074Y-101699755D01*
G37*
X151970074Y-101699755D02*
X151904142Y-101724084D01*
X151850727Y-101767117D01*
X151829836Y-101797409D01*
X151807061Y-101852994D01*
X151807534Y-101893186D01*
X151831438Y-101920217D01*
X151840283Y-101924813D01*
X151878470Y-101939144D01*
X151897972Y-101935472D01*
X151904578Y-101911407D01*
X151904914Y-101898114D01*
X151917008Y-101849210D01*
X151948529Y-101814999D01*
X151992341Y-101798476D01*
X152041305Y-101802634D01*
X152081106Y-101824227D01*
X152094550Y-101836544D01*
X152104079Y-101851487D01*
X152110515Y-101874075D01*
X152114683Y-101909328D01*
X152117403Y-101962266D01*
X152119498Y-102037907D01*
X152120040Y-102061857D01*
X152122019Y-102143790D01*
X152124269Y-102201455D01*
X152127643Y-102239608D01*
X152132994Y-102263004D01*
X152141176Y-102276398D01*
X152153041Y-102284545D01*
X152160638Y-102288144D01*
X152192898Y-102300452D01*
X152211889Y-102304514D01*
X152218164Y-102290948D01*
X152221994Y-102249934D01*
X152223400Y-102180999D01*
X152222402Y-102083669D01*
X152222092Y-102068657D01*
X152219899Y-101979859D01*
X152217307Y-101915019D01*
X152213618Y-101869067D01*
X152208136Y-101836935D01*
X152200165Y-101813553D01*
X152189007Y-101793852D01*
X152183170Y-101785410D01*
X152149704Y-101748057D01*
X152112273Y-101719003D01*
X152107691Y-101716467D01*
X152040574Y-101696443D01*
X151970074Y-101699755D01*
G36*
X152460256Y-101700968D02*
G01*
X152403384Y-101722087D01*
X152402733Y-101722493D01*
X152367560Y-101748380D01*
X152341593Y-101778633D01*
X152323330Y-101818058D01*
X152311268Y-101871462D01*
X152303904Y-101943651D01*
X152299736Y-102039432D01*
X152299371Y-102053078D01*
X152294124Y-102258842D01*
X152338284Y-102281678D01*
X152370237Y-102297110D01*
X152389530Y-102304423D01*
X152390422Y-102304514D01*
X152393761Y-102291022D01*
X152396413Y-102254626D01*
X152398044Y-102201452D01*
X152398400Y-102158393D01*
X152398408Y-102088641D01*
X152401597Y-102044837D01*
X152412712Y-102023944D01*
X152436499Y-102022925D01*
X152477704Y-102038741D01*
X152539914Y-102067815D01*
X152585659Y-102091963D01*
X152609187Y-102112913D01*
X152616104Y-102135747D01*
X152616114Y-102136877D01*
X152604701Y-102176212D01*
X152570908Y-102197462D01*
X152519191Y-102200539D01*
X152481939Y-102200006D01*
X152462297Y-102210735D01*
X152450048Y-102236505D01*
X152442998Y-102269337D01*
X152453158Y-102287966D01*
X152456983Y-102290632D01*
X152492999Y-102301340D01*
X152543434Y-102302856D01*
X152595374Y-102295759D01*
X152632178Y-102282788D01*
X152683062Y-102239585D01*
X152711986Y-102179446D01*
X152717714Y-102132462D01*
X152713343Y-102090082D01*
X152697525Y-102055488D01*
X152666203Y-102024763D01*
X152615322Y-101993990D01*
X152540824Y-101959252D01*
X152536286Y-101957288D01*
X152469179Y-101926287D01*
X152427768Y-101900862D01*
X152410019Y-101878014D01*
X152413893Y-101854745D01*
X152437357Y-101828056D01*
X152444373Y-101821914D01*
X152491370Y-101798100D01*
X152540067Y-101799103D01*
X152582478Y-101822451D01*
X152610616Y-101865675D01*
X152613231Y-101874160D01*
X152638692Y-101915308D01*
X152670999Y-101935128D01*
X152717714Y-101954770D01*
X152717714Y-101903950D01*
X152703504Y-101830082D01*
X152661325Y-101762327D01*
X152639376Y-101739661D01*
X152589483Y-101710569D01*
X152526033Y-101697400D01*
X152460256Y-101700968D01*
G37*
X152460256Y-101700968D02*
X152403384Y-101722087D01*
X152402733Y-101722493D01*
X152367560Y-101748380D01*
X152341593Y-101778633D01*
X152323330Y-101818058D01*
X152311268Y-101871462D01*
X152303904Y-101943651D01*
X152299736Y-102039432D01*
X152299371Y-102053078D01*
X152294124Y-102258842D01*
X152338284Y-102281678D01*
X152370237Y-102297110D01*
X152389530Y-102304423D01*
X152390422Y-102304514D01*
X152393761Y-102291022D01*
X152396413Y-102254626D01*
X152398044Y-102201452D01*
X152398400Y-102158393D01*
X152398408Y-102088641D01*
X152401597Y-102044837D01*
X152412712Y-102023944D01*
X152436499Y-102022925D01*
X152477704Y-102038741D01*
X152539914Y-102067815D01*
X152585659Y-102091963D01*
X152609187Y-102112913D01*
X152616104Y-102135747D01*
X152616114Y-102136877D01*
X152604701Y-102176212D01*
X152570908Y-102197462D01*
X152519191Y-102200539D01*
X152481939Y-102200006D01*
X152462297Y-102210735D01*
X152450048Y-102236505D01*
X152442998Y-102269337D01*
X152453158Y-102287966D01*
X152456983Y-102290632D01*
X152492999Y-102301340D01*
X152543434Y-102302856D01*
X152595374Y-102295759D01*
X152632178Y-102282788D01*
X152683062Y-102239585D01*
X152711986Y-102179446D01*
X152717714Y-102132462D01*
X152713343Y-102090082D01*
X152697525Y-102055488D01*
X152666203Y-102024763D01*
X152615322Y-101993990D01*
X152540824Y-101959252D01*
X152536286Y-101957288D01*
X152469179Y-101926287D01*
X152427768Y-101900862D01*
X152410019Y-101878014D01*
X152413893Y-101854745D01*
X152437357Y-101828056D01*
X152444373Y-101821914D01*
X152491370Y-101798100D01*
X152540067Y-101799103D01*
X152582478Y-101822451D01*
X152610616Y-101865675D01*
X152613231Y-101874160D01*
X152638692Y-101915308D01*
X152670999Y-101935128D01*
X152717714Y-101954770D01*
X152717714Y-101903950D01*
X152703504Y-101830082D01*
X152661325Y-101762327D01*
X152639376Y-101739661D01*
X152589483Y-101710569D01*
X152526033Y-101697400D01*
X152460256Y-101700968D01*
G36*
X153124114Y-101601289D02*
G01*
X153119861Y-101660613D01*
X153114975Y-101695572D01*
X153108205Y-101710820D01*
X153098298Y-101711015D01*
X153095086Y-101709195D01*
X153052356Y-101696015D01*
X152996773Y-101696785D01*
X152940263Y-101710333D01*
X152904918Y-101727861D01*
X152868679Y-101755861D01*
X152842187Y-101787549D01*
X152824001Y-101827813D01*
X152812678Y-101881543D01*
X152806778Y-101953626D01*
X152804857Y-102048951D01*
X152804823Y-102067237D01*
X152804800Y-102272646D01*
X152850509Y-102288580D01*
X152882973Y-102299420D01*
X152900785Y-102304468D01*
X152901309Y-102304514D01*
X152903063Y-102290828D01*
X152904556Y-102253076D01*
X152905674Y-102196224D01*
X152906303Y-102125234D01*
X152906400Y-102082073D01*
X152906602Y-101996973D01*
X152907642Y-101935981D01*
X152910169Y-101894177D01*
X152914836Y-101866642D01*
X152922293Y-101848456D01*
X152933189Y-101834698D01*
X152939993Y-101828073D01*
X152986728Y-101801375D01*
X153037728Y-101799375D01*
X153083999Y-101821955D01*
X153092556Y-101830107D01*
X153105107Y-101845436D01*
X153113812Y-101863618D01*
X153119369Y-101889909D01*
X153122474Y-101929562D01*
X153123824Y-101987832D01*
X153124114Y-102068173D01*
X153124114Y-102272646D01*
X153169823Y-102288580D01*
X153202287Y-102299420D01*
X153220099Y-102304468D01*
X153220623Y-102304514D01*
X153221963Y-102290623D01*
X153223172Y-102251439D01*
X153224199Y-102190700D01*
X153224998Y-102112141D01*
X153225519Y-102019498D01*
X153225714Y-101916509D01*
X153225714Y-101519342D01*
X153178543Y-101499444D01*
X153131371Y-101479547D01*
X153124114Y-101601289D01*
G37*
X153124114Y-101601289D02*
X153119861Y-101660613D01*
X153114975Y-101695572D01*
X153108205Y-101710820D01*
X153098298Y-101711015D01*
X153095086Y-101709195D01*
X153052356Y-101696015D01*
X152996773Y-101696785D01*
X152940263Y-101710333D01*
X152904918Y-101727861D01*
X152868679Y-101755861D01*
X152842187Y-101787549D01*
X152824001Y-101827813D01*
X152812678Y-101881543D01*
X152806778Y-101953626D01*
X152804857Y-102048951D01*
X152804823Y-102067237D01*
X152804800Y-102272646D01*
X152850509Y-102288580D01*
X152882973Y-102299420D01*
X152900785Y-102304468D01*
X152901309Y-102304514D01*
X152903063Y-102290828D01*
X152904556Y-102253076D01*
X152905674Y-102196224D01*
X152906303Y-102125234D01*
X152906400Y-102082073D01*
X152906602Y-101996973D01*
X152907642Y-101935981D01*
X152910169Y-101894177D01*
X152914836Y-101866642D01*
X152922293Y-101848456D01*
X152933189Y-101834698D01*
X152939993Y-101828073D01*
X152986728Y-101801375D01*
X153037728Y-101799375D01*
X153083999Y-101821955D01*
X153092556Y-101830107D01*
X153105107Y-101845436D01*
X153113812Y-101863618D01*
X153119369Y-101889909D01*
X153122474Y-101929562D01*
X153123824Y-101987832D01*
X153124114Y-102068173D01*
X153124114Y-102272646D01*
X153169823Y-102288580D01*
X153202287Y-102299420D01*
X153220099Y-102304468D01*
X153220623Y-102304514D01*
X153221963Y-102290623D01*
X153223172Y-102251439D01*
X153224199Y-102190700D01*
X153224998Y-102112141D01*
X153225519Y-102019498D01*
X153225714Y-101916509D01*
X153225714Y-101519342D01*
X153178543Y-101499444D01*
X153131371Y-101479547D01*
X153124114Y-101601289D01*
G36*
X154331697Y-101681239D02*
G01*
X154274473Y-101719735D01*
X154230251Y-101775335D01*
X154203833Y-101846086D01*
X154198490Y-101898162D01*
X154199097Y-101919893D01*
X154204178Y-101936531D01*
X154218145Y-101951437D01*
X154245411Y-101967973D01*
X154290388Y-101989498D01*
X154357489Y-102019374D01*
X154357829Y-102019524D01*
X154419593Y-102047813D01*
X154470241Y-102072933D01*
X154504596Y-102092179D01*
X154517482Y-102102848D01*
X154517486Y-102102934D01*
X154506128Y-102126166D01*
X154479569Y-102151774D01*
X154449077Y-102170221D01*
X154433630Y-102173886D01*
X154391485Y-102161212D01*
X154355192Y-102129471D01*
X154337483Y-102094572D01*
X154320448Y-102068845D01*
X154287078Y-102039546D01*
X154247851Y-102014235D01*
X154213244Y-102000471D01*
X154206007Y-101999714D01*
X154197861Y-102012160D01*
X154197370Y-102043972D01*
X154203357Y-102086866D01*
X154214643Y-102132558D01*
X154230050Y-102172761D01*
X154230829Y-102174322D01*
X154277196Y-102239062D01*
X154337289Y-102283097D01*
X154405535Y-102304711D01*
X154476362Y-102302185D01*
X154544196Y-102273804D01*
X154547212Y-102271808D01*
X154600573Y-102223448D01*
X154635660Y-102160352D01*
X154655078Y-102077387D01*
X154657684Y-102054078D01*
X154662299Y-101944055D01*
X154656767Y-101892748D01*
X154517486Y-101892748D01*
X154515676Y-101924753D01*
X154505778Y-101934093D01*
X154481102Y-101927105D01*
X154442205Y-101910587D01*
X154398725Y-101889881D01*
X154397644Y-101889333D01*
X154360791Y-101869949D01*
X154346000Y-101857013D01*
X154349647Y-101843451D01*
X154365005Y-101825632D01*
X154404077Y-101799845D01*
X154446154Y-101797950D01*
X154483897Y-101816717D01*
X154509966Y-101852915D01*
X154517486Y-101892748D01*
X154656767Y-101892748D01*
X154652806Y-101856027D01*
X154628450Y-101786212D01*
X154594544Y-101737302D01*
X154533347Y-101687878D01*
X154465937Y-101663359D01*
X154397120Y-101661797D01*
X154331697Y-101681239D01*
G37*
X154331697Y-101681239D02*
X154274473Y-101719735D01*
X154230251Y-101775335D01*
X154203833Y-101846086D01*
X154198490Y-101898162D01*
X154199097Y-101919893D01*
X154204178Y-101936531D01*
X154218145Y-101951437D01*
X154245411Y-101967973D01*
X154290388Y-101989498D01*
X154357489Y-102019374D01*
X154357829Y-102019524D01*
X154419593Y-102047813D01*
X154470241Y-102072933D01*
X154504596Y-102092179D01*
X154517482Y-102102848D01*
X154517486Y-102102934D01*
X154506128Y-102126166D01*
X154479569Y-102151774D01*
X154449077Y-102170221D01*
X154433630Y-102173886D01*
X154391485Y-102161212D01*
X154355192Y-102129471D01*
X154337483Y-102094572D01*
X154320448Y-102068845D01*
X154287078Y-102039546D01*
X154247851Y-102014235D01*
X154213244Y-102000471D01*
X154206007Y-101999714D01*
X154197861Y-102012160D01*
X154197370Y-102043972D01*
X154203357Y-102086866D01*
X154214643Y-102132558D01*
X154230050Y-102172761D01*
X154230829Y-102174322D01*
X154277196Y-102239062D01*
X154337289Y-102283097D01*
X154405535Y-102304711D01*
X154476362Y-102302185D01*
X154544196Y-102273804D01*
X154547212Y-102271808D01*
X154600573Y-102223448D01*
X154635660Y-102160352D01*
X154655078Y-102077387D01*
X154657684Y-102054078D01*
X154662299Y-101944055D01*
X154656767Y-101892748D01*
X154517486Y-101892748D01*
X154515676Y-101924753D01*
X154505778Y-101934093D01*
X154481102Y-101927105D01*
X154442205Y-101910587D01*
X154398725Y-101889881D01*
X154397644Y-101889333D01*
X154360791Y-101869949D01*
X154346000Y-101857013D01*
X154349647Y-101843451D01*
X154365005Y-101825632D01*
X154404077Y-101799845D01*
X154446154Y-101797950D01*
X154483897Y-101816717D01*
X154509966Y-101852915D01*
X154517486Y-101892748D01*
X154656767Y-101892748D01*
X154652806Y-101856027D01*
X154628450Y-101786212D01*
X154594544Y-101737302D01*
X154533347Y-101687878D01*
X154465937Y-101663359D01*
X154397120Y-101661797D01*
X154331697Y-101681239D01*
G36*
X155458885Y-101671962D02*
G01*
X155390855Y-101707733D01*
X155340649Y-101765301D01*
X155322815Y-101802312D01*
X155308937Y-101857882D01*
X155301833Y-101928096D01*
X155301160Y-102004727D01*
X155306573Y-102079552D01*
X155317730Y-102144342D01*
X155334286Y-102190873D01*
X155339374Y-102198887D01*
X155399645Y-102258707D01*
X155471231Y-102294535D01*
X155548908Y-102305020D01*
X155627452Y-102288810D01*
X155649311Y-102279092D01*
X155691878Y-102249143D01*
X155729237Y-102209433D01*
X155732768Y-102204397D01*
X155747119Y-102180124D01*
X155756606Y-102154178D01*
X155762210Y-102120022D01*
X155764914Y-102071119D01*
X155765701Y-102000935D01*
X155765714Y-101985200D01*
X155765678Y-101980192D01*
X155620571Y-101980192D01*
X155619727Y-102046430D01*
X155616404Y-102090386D01*
X155609417Y-102118779D01*
X155597584Y-102138325D01*
X155591543Y-102144857D01*
X155556814Y-102169680D01*
X155523097Y-102168548D01*
X155489005Y-102147016D01*
X155468671Y-102124029D01*
X155456629Y-102090478D01*
X155449866Y-102037569D01*
X155449402Y-102031399D01*
X155448248Y-101935513D01*
X155460312Y-101864299D01*
X155485430Y-101818194D01*
X155523440Y-101797635D01*
X155537008Y-101796514D01*
X155572636Y-101802152D01*
X155597006Y-101821686D01*
X155611907Y-101859042D01*
X155619125Y-101918150D01*
X155620571Y-101980192D01*
X155765678Y-101980192D01*
X155765174Y-101910413D01*
X155762904Y-101858159D01*
X155757932Y-101821949D01*
X155749287Y-101795299D01*
X155735995Y-101771722D01*
X155733057Y-101767338D01*
X155683687Y-101708249D01*
X155629891Y-101673947D01*
X155564398Y-101660331D01*
X155542158Y-101659665D01*
X155458885Y-101671962D01*
G37*
X155458885Y-101671962D02*
X155390855Y-101707733D01*
X155340649Y-101765301D01*
X155322815Y-101802312D01*
X155308937Y-101857882D01*
X155301833Y-101928096D01*
X155301160Y-102004727D01*
X155306573Y-102079552D01*
X155317730Y-102144342D01*
X155334286Y-102190873D01*
X155339374Y-102198887D01*
X155399645Y-102258707D01*
X155471231Y-102294535D01*
X155548908Y-102305020D01*
X155627452Y-102288810D01*
X155649311Y-102279092D01*
X155691878Y-102249143D01*
X155729237Y-102209433D01*
X155732768Y-102204397D01*
X155747119Y-102180124D01*
X155756606Y-102154178D01*
X155762210Y-102120022D01*
X155764914Y-102071119D01*
X155765701Y-102000935D01*
X155765714Y-101985200D01*
X155765678Y-101980192D01*
X155620571Y-101980192D01*
X155619727Y-102046430D01*
X155616404Y-102090386D01*
X155609417Y-102118779D01*
X155597584Y-102138325D01*
X155591543Y-102144857D01*
X155556814Y-102169680D01*
X155523097Y-102168548D01*
X155489005Y-102147016D01*
X155468671Y-102124029D01*
X155456629Y-102090478D01*
X155449866Y-102037569D01*
X155449402Y-102031399D01*
X155448248Y-101935513D01*
X155460312Y-101864299D01*
X155485430Y-101818194D01*
X155523440Y-101797635D01*
X155537008Y-101796514D01*
X155572636Y-101802152D01*
X155597006Y-101821686D01*
X155611907Y-101859042D01*
X155619125Y-101918150D01*
X155620571Y-101980192D01*
X155765678Y-101980192D01*
X155765174Y-101910413D01*
X155762904Y-101858159D01*
X155757932Y-101821949D01*
X155749287Y-101795299D01*
X155735995Y-101771722D01*
X155733057Y-101767338D01*
X155683687Y-101708249D01*
X155629891Y-101673947D01*
X155564398Y-101660331D01*
X155542158Y-101659665D01*
X155458885Y-101671962D01*
G36*
X153783907Y-101677780D02*
G01*
X153737328Y-101704723D01*
X153704943Y-101731466D01*
X153681258Y-101759484D01*
X153664941Y-101793748D01*
X153654661Y-101839227D01*
X153649086Y-101900892D01*
X153646884Y-101983711D01*
X153646629Y-102043246D01*
X153646629Y-102262391D01*
X153708314Y-102290044D01*
X153770000Y-102317697D01*
X153777257Y-102077670D01*
X153780256Y-101988028D01*
X153783402Y-101922962D01*
X153787299Y-101878026D01*
X153792553Y-101848770D01*
X153799769Y-101830748D01*
X153809550Y-101819511D01*
X153812688Y-101817079D01*
X153860239Y-101798083D01*
X153908303Y-101805600D01*
X153936914Y-101825543D01*
X153948553Y-101839675D01*
X153956609Y-101858220D01*
X153961729Y-101886334D01*
X153964559Y-101929173D01*
X153965744Y-101991895D01*
X153965943Y-102057261D01*
X153965982Y-102139268D01*
X153967386Y-102197316D01*
X153972086Y-102236465D01*
X153982013Y-102261780D01*
X153999097Y-102278323D01*
X154025268Y-102291156D01*
X154060225Y-102304491D01*
X154098404Y-102319007D01*
X154093859Y-102061389D01*
X154092029Y-101968519D01*
X154089888Y-101899889D01*
X154086819Y-101850711D01*
X154082206Y-101816198D01*
X154075432Y-101791562D01*
X154065881Y-101772016D01*
X154054366Y-101754770D01*
X153998810Y-101699680D01*
X153931020Y-101667822D01*
X153857287Y-101660191D01*
X153783907Y-101677780D01*
G37*
X153783907Y-101677780D02*
X153737328Y-101704723D01*
X153704943Y-101731466D01*
X153681258Y-101759484D01*
X153664941Y-101793748D01*
X153654661Y-101839227D01*
X153649086Y-101900892D01*
X153646884Y-101983711D01*
X153646629Y-102043246D01*
X153646629Y-102262391D01*
X153708314Y-102290044D01*
X153770000Y-102317697D01*
X153777257Y-102077670D01*
X153780256Y-101988028D01*
X153783402Y-101922962D01*
X153787299Y-101878026D01*
X153792553Y-101848770D01*
X153799769Y-101830748D01*
X153809550Y-101819511D01*
X153812688Y-101817079D01*
X153860239Y-101798083D01*
X153908303Y-101805600D01*
X153936914Y-101825543D01*
X153948553Y-101839675D01*
X153956609Y-101858220D01*
X153961729Y-101886334D01*
X153964559Y-101929173D01*
X153965744Y-101991895D01*
X153965943Y-102057261D01*
X153965982Y-102139268D01*
X153967386Y-102197316D01*
X153972086Y-102236465D01*
X153982013Y-102261780D01*
X153999097Y-102278323D01*
X154025268Y-102291156D01*
X154060225Y-102304491D01*
X154098404Y-102319007D01*
X154093859Y-102061389D01*
X154092029Y-101968519D01*
X154089888Y-101899889D01*
X154086819Y-101850711D01*
X154082206Y-101816198D01*
X154075432Y-101791562D01*
X154065881Y-101772016D01*
X154054366Y-101754770D01*
X153998810Y-101699680D01*
X153931020Y-101667822D01*
X153857287Y-101660191D01*
X153783907Y-101677780D01*
G36*
X154900256Y-101669918D02*
G01*
X154844799Y-101697568D01*
X154795852Y-101748480D01*
X154782371Y-101767338D01*
X154767686Y-101792015D01*
X154758158Y-101818816D01*
X154752707Y-101854587D01*
X154750253Y-101906169D01*
X154749714Y-101974267D01*
X154752148Y-102067588D01*
X154760606Y-102137657D01*
X154776826Y-102189931D01*
X154802546Y-102229869D01*
X154839503Y-102262929D01*
X154842218Y-102264886D01*
X154878640Y-102284908D01*
X154922498Y-102294815D01*
X154978276Y-102297257D01*
X155068952Y-102297257D01*
X155068990Y-102385283D01*
X155069834Y-102434308D01*
X155074976Y-102463065D01*
X155088413Y-102480311D01*
X155114142Y-102494808D01*
X155120321Y-102497769D01*
X155149236Y-102511648D01*
X155171624Y-102520414D01*
X155188271Y-102521171D01*
X155199964Y-102511023D01*
X155207490Y-102487073D01*
X155211634Y-102446426D01*
X155213185Y-102386186D01*
X155212929Y-102303455D01*
X155211651Y-102195339D01*
X155211252Y-102163000D01*
X155209815Y-102051524D01*
X155208528Y-101978603D01*
X155069029Y-101978603D01*
X155068245Y-102040499D01*
X155064760Y-102080997D01*
X155056876Y-102107708D01*
X155042895Y-102128244D01*
X155033403Y-102138260D01*
X154994596Y-102167567D01*
X154960237Y-102169952D01*
X154924784Y-102145750D01*
X154923886Y-102144857D01*
X154909461Y-102126153D01*
X154900687Y-102100732D01*
X154896261Y-102061584D01*
X154894882Y-102001697D01*
X154894857Y-101988430D01*
X154898188Y-101905901D01*
X154909031Y-101848691D01*
X154928660Y-101813766D01*
X154958350Y-101798094D01*
X154975509Y-101796514D01*
X155016234Y-101803926D01*
X155044168Y-101828330D01*
X155060983Y-101872980D01*
X155068350Y-101941130D01*
X155069029Y-101978603D01*
X155208528Y-101978603D01*
X155208292Y-101965245D01*
X155206323Y-101900333D01*
X155203550Y-101852958D01*
X155199612Y-101819290D01*
X155194151Y-101795498D01*
X155186808Y-101777753D01*
X155177223Y-101762224D01*
X155173113Y-101756381D01*
X155118595Y-101701185D01*
X155049664Y-101669890D01*
X154969928Y-101661165D01*
X154900256Y-101669918D01*
G37*
X154900256Y-101669918D02*
X154844799Y-101697568D01*
X154795852Y-101748480D01*
X154782371Y-101767338D01*
X154767686Y-101792015D01*
X154758158Y-101818816D01*
X154752707Y-101854587D01*
X154750253Y-101906169D01*
X154749714Y-101974267D01*
X154752148Y-102067588D01*
X154760606Y-102137657D01*
X154776826Y-102189931D01*
X154802546Y-102229869D01*
X154839503Y-102262929D01*
X154842218Y-102264886D01*
X154878640Y-102284908D01*
X154922498Y-102294815D01*
X154978276Y-102297257D01*
X155068952Y-102297257D01*
X155068990Y-102385283D01*
X155069834Y-102434308D01*
X155074976Y-102463065D01*
X155088413Y-102480311D01*
X155114142Y-102494808D01*
X155120321Y-102497769D01*
X155149236Y-102511648D01*
X155171624Y-102520414D01*
X155188271Y-102521171D01*
X155199964Y-102511023D01*
X155207490Y-102487073D01*
X155211634Y-102446426D01*
X155213185Y-102386186D01*
X155212929Y-102303455D01*
X155211651Y-102195339D01*
X155211252Y-102163000D01*
X155209815Y-102051524D01*
X155208528Y-101978603D01*
X155069029Y-101978603D01*
X155068245Y-102040499D01*
X155064760Y-102080997D01*
X155056876Y-102107708D01*
X155042895Y-102128244D01*
X155033403Y-102138260D01*
X154994596Y-102167567D01*
X154960237Y-102169952D01*
X154924784Y-102145750D01*
X154923886Y-102144857D01*
X154909461Y-102126153D01*
X154900687Y-102100732D01*
X154896261Y-102061584D01*
X154894882Y-102001697D01*
X154894857Y-101988430D01*
X154898188Y-101905901D01*
X154909031Y-101848691D01*
X154928660Y-101813766D01*
X154958350Y-101798094D01*
X154975509Y-101796514D01*
X155016234Y-101803926D01*
X155044168Y-101828330D01*
X155060983Y-101872980D01*
X155068350Y-101941130D01*
X155069029Y-101978603D01*
X155208528Y-101978603D01*
X155208292Y-101965245D01*
X155206323Y-101900333D01*
X155203550Y-101852958D01*
X155199612Y-101819290D01*
X155194151Y-101795498D01*
X155186808Y-101777753D01*
X155177223Y-101762224D01*
X155173113Y-101756381D01*
X155118595Y-101701185D01*
X155049664Y-101669890D01*
X154969928Y-101661165D01*
X154900256Y-101669918D01*
D11*
X147750000Y-105230000D02*
X149080000Y-105230000D01*
X149080000Y-105230000D02*
X149080000Y-103900000D01*
X149080000Y-102690000D02*
X149080000Y-102570000D01*
X146420000Y-102690000D02*
X146420000Y-102570000D01*
X146420000Y-102570000D02*
X149080000Y-102570000D01*
X144800000Y-104330000D02*
X146130000Y-104330000D01*
X146130000Y-104330000D02*
X146130000Y-103000000D01*
X146130000Y-101790000D02*
X146130000Y-101670000D01*
X143470000Y-101790000D02*
X143470000Y-101670000D01*
X143470000Y-101670000D02*
X146130000Y-101670000D01*
D12*
X148488095Y-107122380D02*
X148488095Y-106122380D01*
X148107142Y-106122380D01*
X148011904Y-106170000D01*
X147964285Y-106217619D01*
X147916666Y-106312857D01*
X147916666Y-106455714D01*
X147964285Y-106550952D01*
X148011904Y-106598571D01*
X148107142Y-106646190D01*
X148488095Y-106646190D01*
X147535714Y-106217619D02*
X147488095Y-106170000D01*
X147392857Y-106122380D01*
X147154761Y-106122380D01*
X147059523Y-106170000D01*
X147011904Y-106217619D01*
X146964285Y-106312857D01*
X146964285Y-106408095D01*
X147011904Y-106550952D01*
X147583333Y-107122380D01*
X146964285Y-107122380D01*
X145538095Y-105702380D02*
X145538095Y-104702380D01*
X145157142Y-104702380D01*
X145061904Y-104750000D01*
X145014285Y-104797619D01*
X144966666Y-104892857D01*
X144966666Y-105035714D01*
X145014285Y-105130952D01*
X145061904Y-105178571D01*
X145157142Y-105226190D01*
X145538095Y-105226190D01*
X144014285Y-105702380D02*
X144585714Y-105702380D01*
X144300000Y-105702380D02*
X144300000Y-104702380D01*
X144395238Y-104845238D01*
X144490476Y-104940476D01*
X144585714Y-104988095D01*
M02*
