G04 #@! TF.GenerationSoftware,KiCad,Pcbnew,5.1.5-1.fc31*
G04 #@! TF.CreationDate,2020-03-29T10:54:51-05:00*
G04 #@! TF.ProjectId,TK-X90-Programming,544b2d58-3930-42d5-9072-6f6772616d6d,A*
G04 #@! TF.SameCoordinates,Original*
G04 #@! TF.FileFunction,Legend,Top*
G04 #@! TF.FilePolarity,Positive*
%FSLAX46Y46*%
G04 Gerber Fmt 4.6, Leading zero omitted, Abs format (unit mm)*
G04 Created by KiCad (PCBNEW 5.1.5-1.fc31) date 2020-03-29 10:54:51*
%MOMM*%
%LPD*%
G04 APERTURE LIST*
%ADD10C,0.150000*%
%ADD11C,0.120000*%
G04 APERTURE END LIST*
D10*
X146464285Y-105952380D02*
X147035714Y-105952380D01*
X146750000Y-106952380D02*
X146750000Y-105952380D01*
X147940476Y-106952380D02*
X147607142Y-106476190D01*
X147369047Y-106952380D02*
X147369047Y-105952380D01*
X147750000Y-105952380D01*
X147845238Y-106000000D01*
X147892857Y-106047619D01*
X147940476Y-106142857D01*
X147940476Y-106285714D01*
X147892857Y-106380952D01*
X147845238Y-106428571D01*
X147750000Y-106476190D01*
X147369047Y-106476190D01*
X148369047Y-106952380D02*
X148369047Y-105952380D01*
X148607142Y-105952380D01*
X148750000Y-106000000D01*
X148845238Y-106095238D01*
X148892857Y-106190476D01*
X148940476Y-106380952D01*
X148940476Y-106523809D01*
X148892857Y-106714285D01*
X148845238Y-106809523D01*
X148750000Y-106904761D01*
X148607142Y-106952380D01*
X148369047Y-106952380D01*
X143988095Y-100250000D02*
X143892857Y-100202380D01*
X143750000Y-100202380D01*
X143607142Y-100250000D01*
X143511904Y-100345238D01*
X143464285Y-100440476D01*
X143416666Y-100630952D01*
X143416666Y-100773809D01*
X143464285Y-100964285D01*
X143511904Y-101059523D01*
X143607142Y-101154761D01*
X143750000Y-101202380D01*
X143845238Y-101202380D01*
X143988095Y-101154761D01*
X144035714Y-101107142D01*
X144035714Y-100773809D01*
X143845238Y-100773809D01*
X144464285Y-101202380D02*
X144464285Y-100202380D01*
X145035714Y-101202380D01*
X145035714Y-100202380D01*
X145511904Y-101202380D02*
X145511904Y-100202380D01*
X145750000Y-100202380D01*
X145892857Y-100250000D01*
X145988095Y-100345238D01*
X146035714Y-100440476D01*
X146083333Y-100630952D01*
X146083333Y-100773809D01*
X146035714Y-100964285D01*
X145988095Y-101059523D01*
X145892857Y-101154761D01*
X145750000Y-101202380D01*
X145511904Y-101202380D01*
X152833333Y-98202380D02*
X152500000Y-97726190D01*
X152261904Y-98202380D02*
X152261904Y-97202380D01*
X152642857Y-97202380D01*
X152738095Y-97250000D01*
X152785714Y-97297619D01*
X152833333Y-97392857D01*
X152833333Y-97535714D01*
X152785714Y-97630952D01*
X152738095Y-97678571D01*
X152642857Y-97726190D01*
X152261904Y-97726190D01*
X153166666Y-97202380D02*
X153833333Y-98202380D01*
X153833333Y-97202380D02*
X153166666Y-98202380D01*
X149238095Y-97202380D02*
X149809523Y-97202380D01*
X149523809Y-98202380D02*
X149523809Y-97202380D01*
X150047619Y-97202380D02*
X150714285Y-98202380D01*
X150714285Y-97202380D02*
X150047619Y-98202380D01*
X145988095Y-97250000D02*
X145892857Y-97202380D01*
X145750000Y-97202380D01*
X145607142Y-97250000D01*
X145511904Y-97345238D01*
X145464285Y-97440476D01*
X145416666Y-97630952D01*
X145416666Y-97773809D01*
X145464285Y-97964285D01*
X145511904Y-98059523D01*
X145607142Y-98154761D01*
X145750000Y-98202380D01*
X145845238Y-98202380D01*
X145988095Y-98154761D01*
X146035714Y-98107142D01*
X146035714Y-97773809D01*
X145845238Y-97773809D01*
X146464285Y-98202380D02*
X146464285Y-97202380D01*
X147035714Y-98202380D01*
X147035714Y-97202380D01*
X147511904Y-98202380D02*
X147511904Y-97202380D01*
X147750000Y-97202380D01*
X147892857Y-97250000D01*
X147988095Y-97345238D01*
X148035714Y-97440476D01*
X148083333Y-97630952D01*
X148083333Y-97773809D01*
X148035714Y-97964285D01*
X147988095Y-98059523D01*
X147892857Y-98154761D01*
X147750000Y-98202380D01*
X147511904Y-98202380D01*
D11*
X152510000Y-104830000D02*
X151050000Y-104830000D01*
X152510000Y-101670000D02*
X150350000Y-101670000D01*
X152510000Y-101670000D02*
X152510000Y-102600000D01*
X152510000Y-104830000D02*
X152510000Y-103900000D01*
X146170000Y-96580000D02*
X146170000Y-95250000D01*
X147500000Y-96580000D02*
X146170000Y-96580000D01*
X148770000Y-96580000D02*
X148770000Y-93920000D01*
X148770000Y-93920000D02*
X153910000Y-93920000D01*
X148770000Y-96580000D02*
X153910000Y-96580000D01*
X153910000Y-96580000D02*
X153910000Y-93920000D01*
X152587221Y-99760000D02*
X152912779Y-99760000D01*
X152587221Y-98740000D02*
X152912779Y-98740000D01*
X149337221Y-99760000D02*
X149662779Y-99760000D01*
X149337221Y-98740000D02*
X149662779Y-98740000D01*
X146412779Y-98740000D02*
X146087221Y-98740000D01*
X146412779Y-99760000D02*
X146087221Y-99760000D01*
X156010000Y-103830000D02*
X154550000Y-103830000D01*
X156010000Y-100670000D02*
X153850000Y-100670000D01*
X156010000Y-100670000D02*
X156010000Y-101600000D01*
X156010000Y-103830000D02*
X156010000Y-102900000D01*
D10*
X151011904Y-106202380D02*
X151011904Y-105202380D01*
X151250000Y-105202380D01*
X151392857Y-105250000D01*
X151488095Y-105345238D01*
X151535714Y-105440476D01*
X151583333Y-105630952D01*
X151583333Y-105773809D01*
X151535714Y-105964285D01*
X151488095Y-106059523D01*
X151392857Y-106154761D01*
X151250000Y-106202380D01*
X151011904Y-106202380D01*
X152535714Y-106202380D02*
X151964285Y-106202380D01*
X152250000Y-106202380D02*
X152250000Y-105202380D01*
X152154761Y-105345238D01*
X152059523Y-105440476D01*
X151964285Y-105488095D01*
X144622380Y-95583333D02*
X145336666Y-95583333D01*
X145479523Y-95630952D01*
X145574761Y-95726190D01*
X145622380Y-95869047D01*
X145622380Y-95964285D01*
X145622380Y-94583333D02*
X145622380Y-95154761D01*
X145622380Y-94869047D02*
X144622380Y-94869047D01*
X144765238Y-94964285D01*
X144860476Y-95059523D01*
X144908095Y-95154761D01*
X155083333Y-99702380D02*
X154750000Y-99226190D01*
X154511904Y-99702380D02*
X154511904Y-98702380D01*
X154892857Y-98702380D01*
X154988095Y-98750000D01*
X155035714Y-98797619D01*
X155083333Y-98892857D01*
X155083333Y-99035714D01*
X155035714Y-99130952D01*
X154988095Y-99178571D01*
X154892857Y-99226190D01*
X154511904Y-99226190D01*
X155416666Y-98702380D02*
X156035714Y-98702380D01*
X155702380Y-99083333D01*
X155845238Y-99083333D01*
X155940476Y-99130952D01*
X155988095Y-99178571D01*
X156035714Y-99273809D01*
X156035714Y-99511904D01*
X155988095Y-99607142D01*
X155940476Y-99654761D01*
X155845238Y-99702380D01*
X155559523Y-99702380D01*
X155464285Y-99654761D01*
X155416666Y-99607142D01*
X149083333Y-101202380D02*
X148750000Y-100726190D01*
X148511904Y-101202380D02*
X148511904Y-100202380D01*
X148892857Y-100202380D01*
X148988095Y-100250000D01*
X149035714Y-100297619D01*
X149083333Y-100392857D01*
X149083333Y-100535714D01*
X149035714Y-100630952D01*
X148988095Y-100678571D01*
X148892857Y-100726190D01*
X148511904Y-100726190D01*
X149464285Y-100297619D02*
X149511904Y-100250000D01*
X149607142Y-100202380D01*
X149845238Y-100202380D01*
X149940476Y-100250000D01*
X149988095Y-100297619D01*
X150035714Y-100392857D01*
X150035714Y-100488095D01*
X149988095Y-100630952D01*
X149416666Y-101202380D01*
X150035714Y-101202380D01*
X143833333Y-99702380D02*
X143500000Y-99226190D01*
X143261904Y-99702380D02*
X143261904Y-98702380D01*
X143642857Y-98702380D01*
X143738095Y-98750000D01*
X143785714Y-98797619D01*
X143833333Y-98892857D01*
X143833333Y-99035714D01*
X143785714Y-99130952D01*
X143738095Y-99178571D01*
X143642857Y-99226190D01*
X143261904Y-99226190D01*
X144785714Y-99702380D02*
X144214285Y-99702380D01*
X144500000Y-99702380D02*
X144500000Y-98702380D01*
X144404761Y-98845238D01*
X144309523Y-98940476D01*
X144214285Y-98988095D01*
X155404761Y-105297619D02*
X155309523Y-105250000D01*
X155214285Y-105154761D01*
X155071428Y-105011904D01*
X154976190Y-104964285D01*
X154880952Y-104964285D01*
X154928571Y-105202380D02*
X154833333Y-105154761D01*
X154738095Y-105059523D01*
X154690476Y-104869047D01*
X154690476Y-104535714D01*
X154738095Y-104345238D01*
X154833333Y-104250000D01*
X154928571Y-104202380D01*
X155119047Y-104202380D01*
X155214285Y-104250000D01*
X155309523Y-104345238D01*
X155357142Y-104535714D01*
X155357142Y-104869047D01*
X155309523Y-105059523D01*
X155214285Y-105154761D01*
X155119047Y-105202380D01*
X154928571Y-105202380D01*
X156309523Y-105202380D02*
X155738095Y-105202380D01*
X156023809Y-105202380D02*
X156023809Y-104202380D01*
X155928571Y-104345238D01*
X155833333Y-104440476D01*
X155738095Y-104488095D01*
M02*
