G04 #@! TF.GenerationSoftware,KiCad,Pcbnew,5.1.5-1.fc31*
G04 #@! TF.CreationDate,2020-03-29T10:54:51-05:00*
G04 #@! TF.ProjectId,TK-X90-Programming,544b2d58-3930-42d5-9072-6f6772616d6d,A*
G04 #@! TF.SameCoordinates,Original*
G04 #@! TF.FileFunction,Paste,Top*
G04 #@! TF.FilePolarity,Positive*
%FSLAX46Y46*%
G04 Gerber Fmt 4.6, Leading zero omitted, Abs format (unit mm)*
G04 Created by KiCad (PCBNEW 5.1.5-1.fc31) date 2020-03-29 10:54:51*
%MOMM*%
%LPD*%
G04 APERTURE LIST*
%ADD10R,0.900000X0.800000*%
%ADD11C,0.100000*%
G04 APERTURE END LIST*
D10*
X152750000Y-103250000D03*
X150750000Y-104200000D03*
X150750000Y-102300000D03*
D11*
G36*
X153777691Y-98776053D02*
G01*
X153798926Y-98779203D01*
X153819750Y-98784419D01*
X153839962Y-98791651D01*
X153859368Y-98800830D01*
X153877781Y-98811866D01*
X153895024Y-98824654D01*
X153910930Y-98839070D01*
X153925346Y-98854976D01*
X153938134Y-98872219D01*
X153949170Y-98890632D01*
X153958349Y-98910038D01*
X153965581Y-98930250D01*
X153970797Y-98951074D01*
X153973947Y-98972309D01*
X153975000Y-98993750D01*
X153975000Y-99506250D01*
X153973947Y-99527691D01*
X153970797Y-99548926D01*
X153965581Y-99569750D01*
X153958349Y-99589962D01*
X153949170Y-99609368D01*
X153938134Y-99627781D01*
X153925346Y-99645024D01*
X153910930Y-99660930D01*
X153895024Y-99675346D01*
X153877781Y-99688134D01*
X153859368Y-99699170D01*
X153839962Y-99708349D01*
X153819750Y-99715581D01*
X153798926Y-99720797D01*
X153777691Y-99723947D01*
X153756250Y-99725000D01*
X153318750Y-99725000D01*
X153297309Y-99723947D01*
X153276074Y-99720797D01*
X153255250Y-99715581D01*
X153235038Y-99708349D01*
X153215632Y-99699170D01*
X153197219Y-99688134D01*
X153179976Y-99675346D01*
X153164070Y-99660930D01*
X153149654Y-99645024D01*
X153136866Y-99627781D01*
X153125830Y-99609368D01*
X153116651Y-99589962D01*
X153109419Y-99569750D01*
X153104203Y-99548926D01*
X153101053Y-99527691D01*
X153100000Y-99506250D01*
X153100000Y-98993750D01*
X153101053Y-98972309D01*
X153104203Y-98951074D01*
X153109419Y-98930250D01*
X153116651Y-98910038D01*
X153125830Y-98890632D01*
X153136866Y-98872219D01*
X153149654Y-98854976D01*
X153164070Y-98839070D01*
X153179976Y-98824654D01*
X153197219Y-98811866D01*
X153215632Y-98800830D01*
X153235038Y-98791651D01*
X153255250Y-98784419D01*
X153276074Y-98779203D01*
X153297309Y-98776053D01*
X153318750Y-98775000D01*
X153756250Y-98775000D01*
X153777691Y-98776053D01*
G37*
G36*
X152202691Y-98776053D02*
G01*
X152223926Y-98779203D01*
X152244750Y-98784419D01*
X152264962Y-98791651D01*
X152284368Y-98800830D01*
X152302781Y-98811866D01*
X152320024Y-98824654D01*
X152335930Y-98839070D01*
X152350346Y-98854976D01*
X152363134Y-98872219D01*
X152374170Y-98890632D01*
X152383349Y-98910038D01*
X152390581Y-98930250D01*
X152395797Y-98951074D01*
X152398947Y-98972309D01*
X152400000Y-98993750D01*
X152400000Y-99506250D01*
X152398947Y-99527691D01*
X152395797Y-99548926D01*
X152390581Y-99569750D01*
X152383349Y-99589962D01*
X152374170Y-99609368D01*
X152363134Y-99627781D01*
X152350346Y-99645024D01*
X152335930Y-99660930D01*
X152320024Y-99675346D01*
X152302781Y-99688134D01*
X152284368Y-99699170D01*
X152264962Y-99708349D01*
X152244750Y-99715581D01*
X152223926Y-99720797D01*
X152202691Y-99723947D01*
X152181250Y-99725000D01*
X151743750Y-99725000D01*
X151722309Y-99723947D01*
X151701074Y-99720797D01*
X151680250Y-99715581D01*
X151660038Y-99708349D01*
X151640632Y-99699170D01*
X151622219Y-99688134D01*
X151604976Y-99675346D01*
X151589070Y-99660930D01*
X151574654Y-99645024D01*
X151561866Y-99627781D01*
X151550830Y-99609368D01*
X151541651Y-99589962D01*
X151534419Y-99569750D01*
X151529203Y-99548926D01*
X151526053Y-99527691D01*
X151525000Y-99506250D01*
X151525000Y-98993750D01*
X151526053Y-98972309D01*
X151529203Y-98951074D01*
X151534419Y-98930250D01*
X151541651Y-98910038D01*
X151550830Y-98890632D01*
X151561866Y-98872219D01*
X151574654Y-98854976D01*
X151589070Y-98839070D01*
X151604976Y-98824654D01*
X151622219Y-98811866D01*
X151640632Y-98800830D01*
X151660038Y-98791651D01*
X151680250Y-98784419D01*
X151701074Y-98779203D01*
X151722309Y-98776053D01*
X151743750Y-98775000D01*
X152181250Y-98775000D01*
X152202691Y-98776053D01*
G37*
G36*
X150527691Y-98776053D02*
G01*
X150548926Y-98779203D01*
X150569750Y-98784419D01*
X150589962Y-98791651D01*
X150609368Y-98800830D01*
X150627781Y-98811866D01*
X150645024Y-98824654D01*
X150660930Y-98839070D01*
X150675346Y-98854976D01*
X150688134Y-98872219D01*
X150699170Y-98890632D01*
X150708349Y-98910038D01*
X150715581Y-98930250D01*
X150720797Y-98951074D01*
X150723947Y-98972309D01*
X150725000Y-98993750D01*
X150725000Y-99506250D01*
X150723947Y-99527691D01*
X150720797Y-99548926D01*
X150715581Y-99569750D01*
X150708349Y-99589962D01*
X150699170Y-99609368D01*
X150688134Y-99627781D01*
X150675346Y-99645024D01*
X150660930Y-99660930D01*
X150645024Y-99675346D01*
X150627781Y-99688134D01*
X150609368Y-99699170D01*
X150589962Y-99708349D01*
X150569750Y-99715581D01*
X150548926Y-99720797D01*
X150527691Y-99723947D01*
X150506250Y-99725000D01*
X150068750Y-99725000D01*
X150047309Y-99723947D01*
X150026074Y-99720797D01*
X150005250Y-99715581D01*
X149985038Y-99708349D01*
X149965632Y-99699170D01*
X149947219Y-99688134D01*
X149929976Y-99675346D01*
X149914070Y-99660930D01*
X149899654Y-99645024D01*
X149886866Y-99627781D01*
X149875830Y-99609368D01*
X149866651Y-99589962D01*
X149859419Y-99569750D01*
X149854203Y-99548926D01*
X149851053Y-99527691D01*
X149850000Y-99506250D01*
X149850000Y-98993750D01*
X149851053Y-98972309D01*
X149854203Y-98951074D01*
X149859419Y-98930250D01*
X149866651Y-98910038D01*
X149875830Y-98890632D01*
X149886866Y-98872219D01*
X149899654Y-98854976D01*
X149914070Y-98839070D01*
X149929976Y-98824654D01*
X149947219Y-98811866D01*
X149965632Y-98800830D01*
X149985038Y-98791651D01*
X150005250Y-98784419D01*
X150026074Y-98779203D01*
X150047309Y-98776053D01*
X150068750Y-98775000D01*
X150506250Y-98775000D01*
X150527691Y-98776053D01*
G37*
G36*
X148952691Y-98776053D02*
G01*
X148973926Y-98779203D01*
X148994750Y-98784419D01*
X149014962Y-98791651D01*
X149034368Y-98800830D01*
X149052781Y-98811866D01*
X149070024Y-98824654D01*
X149085930Y-98839070D01*
X149100346Y-98854976D01*
X149113134Y-98872219D01*
X149124170Y-98890632D01*
X149133349Y-98910038D01*
X149140581Y-98930250D01*
X149145797Y-98951074D01*
X149148947Y-98972309D01*
X149150000Y-98993750D01*
X149150000Y-99506250D01*
X149148947Y-99527691D01*
X149145797Y-99548926D01*
X149140581Y-99569750D01*
X149133349Y-99589962D01*
X149124170Y-99609368D01*
X149113134Y-99627781D01*
X149100346Y-99645024D01*
X149085930Y-99660930D01*
X149070024Y-99675346D01*
X149052781Y-99688134D01*
X149034368Y-99699170D01*
X149014962Y-99708349D01*
X148994750Y-99715581D01*
X148973926Y-99720797D01*
X148952691Y-99723947D01*
X148931250Y-99725000D01*
X148493750Y-99725000D01*
X148472309Y-99723947D01*
X148451074Y-99720797D01*
X148430250Y-99715581D01*
X148410038Y-99708349D01*
X148390632Y-99699170D01*
X148372219Y-99688134D01*
X148354976Y-99675346D01*
X148339070Y-99660930D01*
X148324654Y-99645024D01*
X148311866Y-99627781D01*
X148300830Y-99609368D01*
X148291651Y-99589962D01*
X148284419Y-99569750D01*
X148279203Y-99548926D01*
X148276053Y-99527691D01*
X148275000Y-99506250D01*
X148275000Y-98993750D01*
X148276053Y-98972309D01*
X148279203Y-98951074D01*
X148284419Y-98930250D01*
X148291651Y-98910038D01*
X148300830Y-98890632D01*
X148311866Y-98872219D01*
X148324654Y-98854976D01*
X148339070Y-98839070D01*
X148354976Y-98824654D01*
X148372219Y-98811866D01*
X148390632Y-98800830D01*
X148410038Y-98791651D01*
X148430250Y-98784419D01*
X148451074Y-98779203D01*
X148472309Y-98776053D01*
X148493750Y-98775000D01*
X148931250Y-98775000D01*
X148952691Y-98776053D01*
G37*
G36*
X145702691Y-98776053D02*
G01*
X145723926Y-98779203D01*
X145744750Y-98784419D01*
X145764962Y-98791651D01*
X145784368Y-98800830D01*
X145802781Y-98811866D01*
X145820024Y-98824654D01*
X145835930Y-98839070D01*
X145850346Y-98854976D01*
X145863134Y-98872219D01*
X145874170Y-98890632D01*
X145883349Y-98910038D01*
X145890581Y-98930250D01*
X145895797Y-98951074D01*
X145898947Y-98972309D01*
X145900000Y-98993750D01*
X145900000Y-99506250D01*
X145898947Y-99527691D01*
X145895797Y-99548926D01*
X145890581Y-99569750D01*
X145883349Y-99589962D01*
X145874170Y-99609368D01*
X145863134Y-99627781D01*
X145850346Y-99645024D01*
X145835930Y-99660930D01*
X145820024Y-99675346D01*
X145802781Y-99688134D01*
X145784368Y-99699170D01*
X145764962Y-99708349D01*
X145744750Y-99715581D01*
X145723926Y-99720797D01*
X145702691Y-99723947D01*
X145681250Y-99725000D01*
X145243750Y-99725000D01*
X145222309Y-99723947D01*
X145201074Y-99720797D01*
X145180250Y-99715581D01*
X145160038Y-99708349D01*
X145140632Y-99699170D01*
X145122219Y-99688134D01*
X145104976Y-99675346D01*
X145089070Y-99660930D01*
X145074654Y-99645024D01*
X145061866Y-99627781D01*
X145050830Y-99609368D01*
X145041651Y-99589962D01*
X145034419Y-99569750D01*
X145029203Y-99548926D01*
X145026053Y-99527691D01*
X145025000Y-99506250D01*
X145025000Y-98993750D01*
X145026053Y-98972309D01*
X145029203Y-98951074D01*
X145034419Y-98930250D01*
X145041651Y-98910038D01*
X145050830Y-98890632D01*
X145061866Y-98872219D01*
X145074654Y-98854976D01*
X145089070Y-98839070D01*
X145104976Y-98824654D01*
X145122219Y-98811866D01*
X145140632Y-98800830D01*
X145160038Y-98791651D01*
X145180250Y-98784419D01*
X145201074Y-98779203D01*
X145222309Y-98776053D01*
X145243750Y-98775000D01*
X145681250Y-98775000D01*
X145702691Y-98776053D01*
G37*
G36*
X147277691Y-98776053D02*
G01*
X147298926Y-98779203D01*
X147319750Y-98784419D01*
X147339962Y-98791651D01*
X147359368Y-98800830D01*
X147377781Y-98811866D01*
X147395024Y-98824654D01*
X147410930Y-98839070D01*
X147425346Y-98854976D01*
X147438134Y-98872219D01*
X147449170Y-98890632D01*
X147458349Y-98910038D01*
X147465581Y-98930250D01*
X147470797Y-98951074D01*
X147473947Y-98972309D01*
X147475000Y-98993750D01*
X147475000Y-99506250D01*
X147473947Y-99527691D01*
X147470797Y-99548926D01*
X147465581Y-99569750D01*
X147458349Y-99589962D01*
X147449170Y-99609368D01*
X147438134Y-99627781D01*
X147425346Y-99645024D01*
X147410930Y-99660930D01*
X147395024Y-99675346D01*
X147377781Y-99688134D01*
X147359368Y-99699170D01*
X147339962Y-99708349D01*
X147319750Y-99715581D01*
X147298926Y-99720797D01*
X147277691Y-99723947D01*
X147256250Y-99725000D01*
X146818750Y-99725000D01*
X146797309Y-99723947D01*
X146776074Y-99720797D01*
X146755250Y-99715581D01*
X146735038Y-99708349D01*
X146715632Y-99699170D01*
X146697219Y-99688134D01*
X146679976Y-99675346D01*
X146664070Y-99660930D01*
X146649654Y-99645024D01*
X146636866Y-99627781D01*
X146625830Y-99609368D01*
X146616651Y-99589962D01*
X146609419Y-99569750D01*
X146604203Y-99548926D01*
X146601053Y-99527691D01*
X146600000Y-99506250D01*
X146600000Y-98993750D01*
X146601053Y-98972309D01*
X146604203Y-98951074D01*
X146609419Y-98930250D01*
X146616651Y-98910038D01*
X146625830Y-98890632D01*
X146636866Y-98872219D01*
X146649654Y-98854976D01*
X146664070Y-98839070D01*
X146679976Y-98824654D01*
X146697219Y-98811866D01*
X146715632Y-98800830D01*
X146735038Y-98791651D01*
X146755250Y-98784419D01*
X146776074Y-98779203D01*
X146797309Y-98776053D01*
X146818750Y-98775000D01*
X147256250Y-98775000D01*
X147277691Y-98776053D01*
G37*
D10*
X156250000Y-102250000D03*
X154250000Y-103200000D03*
X154250000Y-101300000D03*
M02*
